<svg width="1299" height="1199" viewBox="0 0 1299 1199" fill="none" xmlns="http://www.w3.org/2000/svg">
<rect width="1299" height="1199" fill="url(#paint0_linear_122_9)"/>
<path d="M21.12 22.976H30.72V56H21.12V22.976ZM32.736 48.656H33.12C34.688 48.656 35.792 48.592 36.432 48.464C37.104 48.304 37.6 47.952 37.92 47.408C38.272 46.832 38.464 45.92 38.496 44.672C38.56 43.072 38.592 41.344 38.592 39.488C38.592 37.664 38.56 35.92 38.496 34.256C38.432 33.008 38.224 32.096 37.872 31.52C37.552 30.944 37.024 30.592 36.288 30.464C35.552 30.368 34.496 30.32 33.12 30.32H32.736V22.976H33.12C35.68 22.976 37.808 23.088 39.504 23.312C41.232 23.536 42.656 23.888 43.776 24.368C44.864 24.848 45.728 25.504 46.368 26.336C47.008 27.168 47.472 28.208 47.76 29.456C48.016 30.576 48.176 31.904 48.24 33.44C48.336 34.944 48.384 36.96 48.384 39.488C48.384 42.048 48.336 44.08 48.24 45.584C48.176 47.088 48.016 48.4 47.76 49.52C47.472 50.768 47.008 51.808 46.368 52.64C45.728 53.472 44.864 54.128 43.776 54.608C42.656 55.088 41.232 55.44 39.504 55.664C37.808 55.888 35.68 56 33.12 56H32.736V48.656ZM53.745 22.976H63.345V56H53.745V22.976ZM67.281 44.768H65.361V37.424H66.993C67.985 37.424 68.737 37.392 69.249 37.328C69.761 37.232 70.161 37.072 70.449 36.848C70.705 36.624 70.881 36.288 70.977 35.84C71.073 35.392 71.121 34.736 71.121 33.872C71.121 33.008 71.073 32.352 70.977 31.904C70.881 31.424 70.705 31.072 70.449 30.848C70.193 30.624 69.809 30.48 69.297 30.416C68.817 30.352 68.049 30.32 66.993 30.32H65.361V22.976H70.305C72.577 22.976 74.417 23.2 75.825 23.648C77.233 24.096 78.321 24.784 79.089 25.712C79.793 26.576 80.257 27.648 80.481 28.928C80.737 30.208 80.865 31.856 80.865 33.872C80.865 36.464 80.625 38.464 80.145 39.872C79.473 41.664 78.289 42.928 76.593 43.664L81.585 56H71.505L67.281 44.768ZM99.5288 56.384C96.1688 56.384 93.5768 56.112 91.7528 55.568C89.9288 55.024 88.5848 54.144 87.7208 52.928C86.9208 51.808 86.4248 50.384 86.2328 48.656C86.0408 46.928 85.9448 44.352 85.9448 40.928V22.976H95.5448V42.848C95.5448 44.032 95.5768 45.168 95.6407 46.256C95.7048 47.12 95.8488 47.744 96.0728 48.128C96.2968 48.512 96.6808 48.752 97.2248 48.848C97.7048 48.976 98.4728 49.04 99.5288 49.04H100.633C100.889 49.04 101.177 49.008 101.497 48.944V56.336C101.273 56.368 100.953 56.384 100.537 56.384H99.5288ZM103.513 22.976H113.113V40.928C113.113 44.064 113.049 46.432 112.921 48.032C112.793 49.632 112.441 50.976 111.865 52.064C111.225 53.312 110.249 54.272 108.937 54.944C107.625 55.616 105.817 56.048 103.513 56.24V22.976ZM130.173 22.688C131.453 22.624 132.509 22.592 133.341 22.592C136.221 22.592 138.861 22.784 141.261 23.168C142.477 23.296 143.645 23.488 144.765 23.744V30.608C143.421 30.48 142.413 30.368 141.741 30.272C141.197 30.24 140.317 30.16 139.101 30.032C137.885 29.968 137.085 29.936 136.701 29.936C134.749 29.936 133.309 29.984 132.381 30.08C131.485 30.144 130.749 30.336 130.173 30.656V22.688ZM133.341 56.384C130.141 56.384 127.581 56.144 125.661 55.664C123.773 55.184 122.301 54.336 121.245 53.12C120.189 51.904 119.437 50.224 118.989 48.08C118.573 45.936 118.365 43.072 118.365 39.488C118.365 36.448 118.509 33.952 118.797 32C119.085 30.048 119.581 28.448 120.285 27.2C121.021 25.92 122.013 24.944 123.261 24.272C124.509 23.6 126.141 23.136 128.157 22.88V39.488C128.157 41.76 128.221 43.504 128.349 44.72C128.477 45.904 128.717 46.816 129.069 47.456C129.453 48.128 129.997 48.592 130.701 48.848C131.437 49.104 132.477 49.232 133.821 49.232V56.384H133.341ZM135.837 43.328H132.429V36.368H144.909V55.184C143.405 55.536 141.533 55.808 139.293 56C138.205 56.16 137.053 56.256 135.837 56.288V43.328ZM163.386 22.976H172.986V56H163.386V22.976ZM181.914 43.28H175.002V35.6H181.914V22.976H191.514V56H181.914V43.28ZM205.233 22.976H206.049L209.841 36.128L204.321 56H194.721L205.233 22.976ZM216.033 50.144H208.017L210.033 42.752H213.873L208.209 22.976H216.993L227.505 56H217.713L216.033 50.144ZM230.698 22.976H240.298V56H230.698V22.976ZM244.234 44.768H242.314V37.424H243.946C244.938 37.424 245.69 37.392 246.202 37.328C246.714 37.232 247.114 37.072 247.402 36.848C247.658 36.624 247.834 36.288 247.93 35.84C248.026 35.392 248.074 34.736 248.074 33.872C248.074 33.008 248.026 32.352 247.93 31.904C247.834 31.424 247.658 31.072 247.402 30.848C247.146 30.624 246.762 30.48 246.25 30.416C245.77 30.352 245.002 30.32 243.946 30.32H242.314V22.976H247.258C249.53 22.976 251.37 23.2 252.778 23.648C254.186 24.096 255.274 24.784 256.042 25.712C256.746 26.576 257.21 27.648 257.434 28.928C257.69 30.208 257.818 31.856 257.818 33.872C257.818 36.464 257.578 38.464 257.098 39.872C256.426 41.664 255.242 42.928 253.546 43.664L258.538 56H248.458L244.234 44.768ZM263.042 24.416V22.976H271.874L285.698 52.352L284.114 56H277.874L263.042 24.416ZM290.162 42.128H289.97L286.754 49.904L282.626 41.072L290.162 22.976H299.282V56H290.162V42.128ZM263.042 29.168L271.874 47.984V56H263.042V29.168ZM328.263 30.56C327.207 30.432 325.351 30.256 322.695 30.032C321.223 29.968 320.039 29.936 319.143 29.936C317.991 29.936 316.903 29.968 315.879 30.032V22.592H317.079C319.703 22.592 322.423 22.768 325.239 23.12C326.135 23.248 327.143 23.424 328.263 23.648V30.56ZM320.343 46.256C320.343 45.584 320.295 45.104 320.199 44.816C320.103 44.496 319.943 44.288 319.719 44.192C319.495 44.064 319.111 43.968 318.567 43.904L312.663 43.184C309.175 42.8 306.823 41.664 305.607 39.776C305.063 38.976 304.695 38 304.503 36.848C304.311 35.696 304.215 34.288 304.215 32.624C304.215 29.072 305.127 26.512 306.951 24.944C308.423 23.664 310.727 22.912 313.863 22.688V32.336C313.863 32.752 313.879 33.104 313.911 33.392C313.943 33.68 314.007 33.904 314.103 34.064C314.199 34.256 314.359 34.4 314.583 34.496C314.807 34.56 315.143 34.608 315.591 34.64L322.215 35.456C323.591 35.648 324.711 35.888 325.575 36.176C326.439 36.464 327.175 36.912 327.783 37.52C329.223 39.024 329.943 41.696 329.943 45.536C329.943 49.6 329.047 52.448 327.255 54.08C326.455 54.816 325.479 55.36 324.327 55.712C323.207 56.032 321.879 56.24 320.343 56.336V46.256ZM317.799 56.384C314.599 56.384 311.623 56.24 308.871 55.952C307.239 55.792 306.007 55.632 305.175 55.472V48.464C307.063 48.624 309.223 48.784 311.655 48.944C313.191 49.008 314.279 49.04 314.919 49.04C316.647 49.04 317.783 48.992 318.327 48.896V56.384H317.799ZM347.37 22.976H356.97V56H347.37V22.976ZM363.214 24.32V22.976H372.814L391.342 54.608V56H381.79L363.214 24.32ZM382.222 35.024V22.976H391.342V50.624L382.222 35.024ZM363.214 28.304L372.334 43.904V56H363.214V28.304ZM407.354 22.976H434.378V30.656H407.354V22.976ZM416.042 32.576H425.642V56H416.042V32.576ZM437.933 22.976H447.533V56H437.933V22.976ZM456.461 43.28H449.549V35.6H456.461V22.976H466.061V56H456.461V43.28ZM472.292 22.976H481.892V56H472.292V22.976ZM483.908 22.976H496.1V30.32H483.908V22.976ZM483.908 35.648H493.844V42.992H483.908V35.648ZM483.908 48.656H496.1V56H483.908V48.656ZM527.779 56.384C524.419 56.384 521.827 56.112 520.003 55.568C518.179 55.024 516.835 54.144 515.971 52.928C515.171 51.808 514.675 50.384 514.483 48.656C514.291 46.928 514.195 44.352 514.195 40.928V22.976H523.795V42.848C523.795 44.032 523.827 45.168 523.891 46.256C523.955 47.12 524.099 47.744 524.323 48.128C524.547 48.512 524.931 48.752 525.475 48.848C525.955 48.976 526.723 49.04 527.779 49.04H528.883C529.139 49.04 529.427 49.008 529.747 48.944V56.336C529.523 56.368 529.203 56.384 528.787 56.384H527.779ZM531.763 22.976H541.363V40.928C541.363 44.064 541.299 46.432 541.171 48.032C541.043 49.632 540.691 50.976 540.115 52.064C539.475 53.312 538.499 54.272 537.187 54.944C535.875 55.616 534.067 56.048 531.763 56.24V22.976ZM547.479 22.976H557.079V56H547.479V22.976ZM559.095 44.432V34.112L566.679 22.976H577.143L565.767 38.528L577.287 56H566.535L559.095 44.432Z" fill="#F0FFF9"/>
<path d="M1144.95 31.0859L1142.35 22.9844C1142.3 22.875 1142.28 22.7578 1142.28 22.6328C1142.28 22.5026 1142.33 22.3854 1142.41 22.2812C1142.51 22.1771 1142.62 22.099 1142.75 22.0469C1142.88 21.9948 1143 21.9557 1143.12 21.9297C1143.23 21.8984 1143.33 21.8828 1143.4 21.8828C1143.63 21.8828 1143.78 22.0104 1143.86 22.2656L1145.95 29.1016C1146.04 29.4089 1146.09 29.6302 1146.09 29.7656C1146.09 30.026 1146 30.3698 1145.83 30.7969C1145.66 31.224 1145.48 31.4375 1145.29 31.4375C1145.14 31.4375 1145.03 31.3203 1144.95 31.0859ZM1150.26 22.4219L1147.49 31.6406C1147.42 31.8125 1147.37 31.9375 1147.34 32.0156C1147.3 32.0938 1147.24 32.2031 1147.15 32.3438C1147.05 32.4792 1146.95 32.5859 1146.84 32.6641C1146.66 32.7839 1146.49 32.8828 1146.33 32.9609C1146.16 33.0391 1146.04 33.0781 1145.97 33.0781C1145.82 33.0781 1145.75 33 1145.75 32.8438C1145.75 32.7812 1145.8 32.5755 1145.91 32.2266L1148.61 23.125C1148.7 22.8333 1148.9 22.5547 1149.2 22.2891C1149.51 22.0182 1149.8 21.8828 1150.07 21.8828C1150.23 21.8828 1150.3 21.9609 1150.3 22.1172C1150.3 22.2109 1150.29 22.3125 1150.26 22.4219ZM1153.07 25.0938V32.0703C1153.07 32.2682 1153.02 32.4297 1152.93 32.5547C1152.79 32.7109 1152.63 32.8385 1152.45 32.9375C1152.26 33.0312 1152.09 33.0781 1151.94 33.0781C1151.76 33.0781 1151.66 32.9661 1151.66 32.7422V25.7656C1151.66 25.5677 1151.71 25.4089 1151.8 25.2891C1151.94 25.1328 1152.1 25.0052 1152.28 24.9062C1152.47 24.8073 1152.64 24.7578 1152.8 24.7578C1152.98 24.7578 1153.07 24.8698 1153.07 25.0938ZM1153.07 21.0234V22.1562C1153.07 22.3542 1153.02 22.5156 1152.93 22.6406C1152.79 22.7969 1152.63 22.9245 1152.45 23.0234C1152.26 23.1172 1152.09 23.1641 1151.94 23.1641C1151.76 23.1641 1151.66 23.0521 1151.66 22.8281V21.6953C1151.66 21.4922 1151.71 21.3333 1151.8 21.2188C1151.94 21.0625 1152.1 20.9349 1152.28 20.8359C1152.47 20.737 1152.64 20.6875 1152.8 20.6875C1152.98 20.6875 1153.07 20.7995 1153.07 21.0234ZM1155.27 31.0391L1157.95 26.8203C1158.05 26.6589 1158.17 26.5521 1158.3 26.5C1158.44 26.4427 1158.64 26.4141 1158.91 26.4141C1159.27 26.4141 1159.45 26.4818 1159.45 26.6172C1159.45 26.6849 1159.41 26.7917 1159.32 26.9375L1156.59 31.25C1156.47 31.4531 1156.23 31.5547 1155.87 31.5547H1155.53C1155.27 31.5547 1155.14 31.4896 1155.14 31.3594C1155.14 31.2917 1155.18 31.1849 1155.27 31.0391ZM1155.64 25H1160.02C1160.24 25 1160.35 25.0807 1160.35 25.2422C1160.35 25.3151 1160.31 25.4193 1160.23 25.5547C1160.16 25.6901 1160.04 25.8229 1159.9 25.9531C1159.78 26.0625 1159.59 26.1172 1159.33 26.1172H1154.68C1154.61 26.1172 1154.55 26.1146 1154.51 26.1094C1154.47 26.099 1154.44 26.0755 1154.41 26.0391C1154.38 26.0026 1154.36 25.9505 1154.36 25.8828C1154.36 25.7005 1154.5 25.5078 1154.77 25.3047C1155.05 25.1016 1155.34 25 1155.64 25ZM1155.27 31.8828H1159.95C1160.18 31.8828 1160.29 31.9635 1160.29 32.125C1160.29 32.1979 1160.25 32.3021 1160.17 32.4375C1160.09 32.5729 1159.98 32.7057 1159.84 32.8359C1159.72 32.9453 1159.53 33 1159.27 33H1154.62C1154.41 33 1154.3 32.9271 1154.3 32.7812C1154.3 32.5885 1154.41 32.3854 1154.62 32.1719C1154.81 31.9792 1155.02 31.8828 1155.27 31.8828ZM1166.78 25.4141C1167.38 24.9766 1167.98 24.7578 1168.59 24.7578C1170.51 24.7578 1171.47 26.0703 1171.47 28.6953C1171.47 29.2005 1171.41 29.7135 1171.3 30.2344C1171.2 30.75 1171.05 31.1927 1170.87 31.5625C1170.67 31.9583 1170.43 32.2917 1170.14 32.5625C1169.86 32.8333 1169.63 32.9688 1169.45 32.9688C1169.35 32.9688 1169.3 32.9193 1169.3 32.8203C1169.3 32.7891 1169.31 32.75 1169.34 32.7031C1169.38 32.651 1169.43 32.5703 1169.49 32.4609C1169.55 32.3516 1169.61 32.2266 1169.66 32.0859C1169.88 31.5026 1169.98 30.6719 1169.98 29.5938C1169.98 28.9948 1169.95 28.4792 1169.89 28.0469C1169.83 27.6146 1169.73 27.2318 1169.59 26.8984C1169.45 26.5599 1169.24 26.3073 1168.98 26.1406C1168.72 25.9688 1168.4 25.8828 1168.02 25.8828C1167.6 25.8828 1167.23 25.9661 1166.91 26.1328C1166.6 26.2943 1166.13 26.6094 1165.52 27.0781C1165.35 27.2083 1165.22 27.2734 1165.12 27.2734C1165.02 27.2734 1164.97 27.1901 1164.97 27.0234V22.0078C1164.97 21.7266 1165.1 21.4896 1165.35 21.2969C1165.61 21.099 1165.86 21 1166.1 21C1166.28 21 1166.38 21.112 1166.38 21.3359L1166.35 25.2891C1166.35 25.4766 1166.39 25.5703 1166.48 25.5703C1166.54 25.5703 1166.65 25.5182 1166.78 25.4141ZM1167.71 32.1172C1168.05 32.1172 1168.36 32.0781 1168.62 32C1168.88 31.9219 1169.02 31.8828 1169.03 31.8828C1169.14 31.8828 1169.2 31.9401 1169.2 32.0547C1169.2 32.3307 1169 32.599 1168.62 32.8594C1168.24 33.1146 1167.76 33.2422 1167.18 33.2422C1166.48 33.2422 1165.94 33.0859 1165.55 32.7734C1165.16 32.4609 1164.97 31.9323 1164.97 31.1875V28.5391C1164.97 28.2578 1165.04 28.0339 1165.19 27.8672C1165.33 27.7057 1165.49 27.5599 1165.69 27.4297C1165.88 27.2995 1166.03 27.2344 1166.13 27.2344C1166.29 27.2344 1166.38 27.3464 1166.38 27.5703V30.7109C1166.38 31.2214 1166.48 31.5833 1166.68 31.7969C1166.88 32.0104 1167.23 32.1172 1167.71 32.1172ZM1175.56 33.2422C1175.12 33.2422 1174.75 33.1849 1174.43 33.0703C1174.12 32.9609 1173.86 32.7786 1173.66 32.5234C1173.47 32.263 1173.32 31.9271 1173.23 31.5156C1173.13 31.1042 1173.09 30.5964 1173.09 29.9922V25.75C1173.09 25.6094 1173.12 25.4792 1173.2 25.3594C1173.27 25.2344 1173.37 25.1276 1173.48 25.0391C1173.59 24.9505 1173.71 24.8828 1173.84 24.8359C1173.98 24.7839 1174.1 24.7578 1174.22 24.7578C1174.4 24.7578 1174.49 24.8698 1174.49 25.0938V29.5L1174.52 30.1875C1174.52 30.3385 1174.53 30.4609 1174.54 30.5547C1174.55 30.6432 1174.56 30.724 1174.58 30.7969C1174.59 30.8698 1174.61 30.9401 1174.62 31.0078C1174.65 31.0755 1174.67 31.1615 1174.7 31.2656C1174.79 31.5781 1174.96 31.7995 1175.21 31.9297C1175.46 32.0547 1175.78 32.1172 1176.16 32.1172C1176.55 32.1172 1176.92 32.0156 1177.27 31.8125C1177.37 31.7552 1177.44 31.7266 1177.48 31.7266C1177.55 31.7266 1177.59 31.8229 1177.59 32.0156C1177.59 32.2292 1177.52 32.4141 1177.37 32.5703C1177.22 32.7214 1177.03 32.8464 1176.82 32.9453C1176.61 33.0443 1176.38 33.1172 1176.15 33.1641C1175.92 33.2161 1175.72 33.2422 1175.56 33.2422ZM1179.39 25.0938V34.5859C1179.39 34.9766 1179.34 35.3359 1179.24 35.6641C1179.14 35.9974 1179.02 36.2656 1178.87 36.4688C1178.72 36.6771 1178.56 36.8542 1178.38 37C1178.21 37.1458 1178.04 37.2474 1177.9 37.3047C1177.76 37.3672 1177.64 37.3984 1177.53 37.3984C1177.45 37.3984 1177.41 37.362 1177.41 37.2891C1177.41 37.2422 1177.45 37.1615 1177.53 37.0469C1177.71 36.8021 1177.83 36.4922 1177.89 36.1172C1177.96 35.7474 1177.99 35.2474 1177.99 34.6172L1177.98 25.7656C1177.98 25.5625 1178.03 25.4036 1178.12 25.2891C1178.26 25.1328 1178.42 25.0052 1178.6 24.9062C1178.79 24.8073 1178.96 24.7578 1179.12 24.7578C1179.3 24.7578 1179.39 24.8698 1179.39 25.0938ZM1174.8 36.2031C1174.98 36.3438 1175.16 36.4427 1175.32 36.5C1175.48 36.5625 1175.68 36.5938 1175.91 36.5938C1176.12 36.5938 1176.36 36.5651 1176.62 36.5078C1176.9 36.4505 1177.04 36.4219 1177.05 36.4219C1177.19 36.4219 1177.26 36.487 1177.26 36.6172C1177.26 36.8568 1177.05 37.099 1176.65 37.3438C1176.24 37.5938 1175.8 37.7188 1175.34 37.7188C1174.88 37.7188 1174.44 37.6224 1174.03 37.4297C1173.62 37.237 1173.42 37.0469 1173.42 36.8594C1173.42 36.6719 1173.53 36.4948 1173.74 36.3281C1173.99 36.125 1174.19 36.0234 1174.34 36.0234C1174.5 36.0234 1174.65 36.0833 1174.8 36.2031ZM1182.95 30.8594V31.9141C1182.95 32.1693 1182.9 32.3594 1182.79 32.4844C1182.66 32.6406 1182.47 32.7786 1182.23 32.8984C1182 33.0182 1181.81 33.0781 1181.66 33.0781C1181.47 33.0781 1181.38 32.9661 1181.38 32.7422V31.6875C1181.38 31.4688 1181.44 31.2917 1181.55 31.1562C1181.68 31 1181.87 30.8568 1182.1 30.7266C1182.34 30.5911 1182.53 30.5234 1182.68 30.5234C1182.86 30.5234 1182.95 30.6354 1182.95 30.8594ZM1182.95 25.1016V26.1562C1182.95 26.4115 1182.9 26.6016 1182.79 26.7266C1182.66 26.8828 1182.47 27.0208 1182.23 27.1406C1182 27.2604 1181.81 27.3203 1181.66 27.3203C1181.47 27.3203 1181.38 27.2083 1181.38 26.9844V25.9297C1181.38 25.7109 1181.44 25.5339 1181.55 25.3984C1181.68 25.2422 1181.87 25.099 1182.1 24.9688C1182.34 24.8333 1182.53 24.7656 1182.68 24.7656C1182.86 24.7656 1182.95 24.8776 1182.95 25.1016ZM1189.2 21.992H1192.4V33H1189.2V21.992ZM1193.07 30.552H1193.72C1194.02 30.552 1194.25 30.5467 1194.4 30.536C1194.56 30.5147 1194.67 30.472 1194.75 30.408C1194.82 30.344 1194.87 30.2533 1194.89 30.136C1194.92 30.0187 1194.94 29.848 1194.94 29.624C1194.94 29.3893 1194.92 29.2133 1194.89 29.096C1194.87 28.9787 1194.82 28.888 1194.75 28.824C1194.62 28.7173 1194.28 28.664 1193.72 28.664H1193.07V26.216H1193.63C1193.93 26.216 1194.15 26.2107 1194.3 26.2C1194.46 26.1787 1194.58 26.136 1194.65 26.072C1194.73 26.008 1194.77 25.9227 1194.8 25.816C1194.83 25.6987 1194.84 25.5387 1194.84 25.336C1194.84 25.1227 1194.83 24.9627 1194.8 24.856C1194.77 24.7387 1194.73 24.648 1194.65 24.584C1194.58 24.52 1194.46 24.4827 1194.3 24.472C1194.15 24.4507 1193.93 24.44 1193.63 24.44H1193.07V21.992H1194.89C1197.04 21.992 1198.11 22.9147 1198.11 24.76C1198.11 25.5387 1197.95 26.1253 1197.64 26.52C1197.35 26.9147 1196.87 27.192 1196.2 27.352V27.416C1196.9 27.576 1197.39 27.8267 1197.69 28.168C1198.03 28.5733 1198.2 29.2027 1198.2 30.056C1198.2 31.0373 1197.94 31.7733 1197.42 32.264C1196.9 32.7547 1196.06 33 1194.91 33H1193.07V30.552ZM1199.79 21.112H1202.75V23.416H1199.79V21.112ZM1199.79 24.84H1202.75V33H1199.79V24.84ZM1204.57 21.112H1207.53V23.416H1204.57V21.112ZM1203.26 34.104C1203.57 34.104 1203.81 34.088 1203.99 34.056C1204.16 34.024 1204.29 33.976 1204.38 33.912C1204.46 33.848 1204.51 33.7627 1204.54 33.656C1204.56 33.528 1204.57 33.4053 1204.57 33.288V24.84H1207.53V32.408C1207.53 33.3147 1207.47 34.008 1207.35 34.488C1207.25 34.9787 1207.04 35.3467 1206.74 35.592C1206.45 35.8373 1206.03 35.9973 1205.51 36.072C1204.99 36.1467 1204.24 36.184 1203.26 36.184V34.104ZM1213.91 28.936C1213.91 28.392 1213.9 28.0293 1213.89 27.848C1213.88 27.592 1213.85 27.4 1213.8 27.272C1213.74 27.1333 1213.66 27.048 1213.54 27.016C1213.41 26.984 1213.24 26.968 1213.01 26.968H1212.79V24.712H1213.01C1213.94 24.712 1214.67 24.7867 1215.19 24.936C1215.71 25.0747 1216.1 25.3093 1216.36 25.64C1216.59 25.9387 1216.74 26.3387 1216.81 26.84C1216.88 27.3307 1216.92 28.0293 1216.92 28.936C1216.92 29.7787 1216.89 30.4347 1216.84 30.904C1216.79 31.3627 1216.68 31.7413 1216.5 32.04C1216.3 32.3707 1215.99 32.6213 1215.59 32.792C1215.18 32.952 1214.62 33.0533 1213.91 33.096V28.936ZM1213.01 33.128C1212.09 33.128 1211.36 33.0587 1210.84 32.92C1210.31 32.7813 1209.93 32.5467 1209.67 32.216C1209.43 31.9173 1209.28 31.5227 1209.21 31.032C1209.14 30.5413 1209.11 29.8427 1209.11 28.936C1209.11 28.104 1209.14 27.4533 1209.19 26.984C1209.24 26.5147 1209.36 26.1253 1209.54 25.816C1209.73 25.4747 1210.03 25.224 1210.44 25.064C1210.84 24.8933 1211.4 24.7867 1212.12 24.744V28.936C1212.12 29.48 1212.12 29.8373 1212.13 30.008C1212.14 30.264 1212.18 30.456 1212.23 30.584C1212.28 30.712 1212.37 30.792 1212.5 30.824C1212.61 30.856 1212.78 30.872 1213.01 30.872H1213.24V33.128H1213.01ZM1220.83 32.952C1219.87 32.952 1219.22 32.6587 1218.89 32.072C1218.74 31.816 1218.64 31.5067 1218.59 31.144C1218.53 30.7707 1218.51 30.3173 1218.51 29.784V24.84H1221.47V28.536C1221.47 29.1013 1221.47 29.4747 1221.48 29.656C1221.5 29.9333 1221.54 30.1253 1221.58 30.232C1221.62 30.3493 1221.69 30.424 1221.79 30.456C1221.88 30.4773 1222.05 30.488 1222.3 30.488H1222.46V32.472C1222.03 32.792 1221.49 32.952 1220.83 32.952ZM1221.93 36.296C1221.38 36.296 1220.72 36.264 1219.98 36.2L1219.05 36.104V34.04H1221.19C1221.58 34.04 1221.95 34.0293 1222.31 34.008C1222.57 33.9867 1222.76 33.9333 1222.87 33.848C1223 33.7733 1223.08 33.64 1223.1 33.448C1223.12 33.192 1223.13 32.92 1223.13 32.632V24.84H1226.09V32.104C1226.09 32.9573 1226.05 33.6187 1225.98 34.088C1225.91 34.5573 1225.76 34.9467 1225.51 35.256C1225.24 35.608 1224.82 35.8693 1224.25 36.04C1223.68 36.2107 1222.91 36.296 1221.93 36.296ZM1232.2 21.992H1235.4V33H1232.2V21.992ZM1236.07 27.128H1236.45C1236.79 27.128 1237.04 27.1173 1237.2 27.096C1237.37 27.064 1237.51 27 1237.6 26.904C1237.7 26.8187 1237.76 26.696 1237.78 26.536C1237.81 26.3653 1237.83 26.1147 1237.83 25.784C1237.83 25.4533 1237.81 25.208 1237.78 25.048C1237.76 24.8773 1237.7 24.744 1237.6 24.648C1237.51 24.5627 1237.37 24.5093 1237.2 24.488C1237.03 24.456 1236.78 24.44 1236.45 24.44H1236.07V21.992H1237.4C1238.19 21.992 1238.83 22.072 1239.32 22.232C1239.82 22.3813 1240.2 22.616 1240.45 22.936C1240.7 23.2347 1240.86 23.6133 1240.95 24.072C1241.03 24.52 1241.08 25.0907 1241.08 25.784C1241.08 26.4453 1241.03 26.9947 1240.95 27.432C1240.87 27.8693 1240.72 28.2373 1240.48 28.536C1240.22 28.8773 1239.83 29.1387 1239.33 29.32C1238.84 29.4907 1238.2 29.576 1237.4 29.576H1236.07V27.128ZM1246.56 27.944C1246.56 27.6667 1246.55 27.4693 1246.52 27.352C1246.5 27.2347 1246.44 27.1493 1246.33 27.096C1246.24 27.0427 1246.06 27.0053 1245.79 26.984C1245.63 26.9733 1245.28 26.968 1244.75 26.968C1244.24 26.968 1243.76 26.9893 1243.32 27.032L1242.48 27.08V25C1243.48 24.808 1244.56 24.712 1245.72 24.712C1246.62 24.712 1247.32 24.776 1247.82 24.904C1248.33 25.032 1248.72 25.2347 1248.97 25.512C1249.2 25.768 1249.34 26.0933 1249.4 26.488C1249.48 26.8827 1249.52 27.432 1249.52 28.136V33H1246.56V27.944ZM1244.19 33.112C1243.45 33.112 1242.91 32.9093 1242.56 32.504C1242.2 32.088 1242.03 31.464 1242.03 30.632C1242.03 30.12 1242.07 29.7093 1242.14 29.4C1242.22 29.08 1242.34 28.8293 1242.52 28.648C1242.71 28.456 1242.96 28.3227 1243.28 28.248C1243.6 28.1627 1244.02 28.12 1244.54 28.12L1245.88 28.152V29.576H1245.72C1245.48 29.576 1245.32 29.5813 1245.24 29.592C1245.03 29.6027 1244.92 29.704 1244.91 29.896C1244.9 29.96 1244.89 30.0933 1244.89 30.296C1244.89 30.456 1244.9 30.5787 1244.91 30.664C1244.93 30.7493 1244.96 30.8187 1245 30.872C1245.06 30.9467 1245.14 30.9893 1245.24 31C1245.39 31.0213 1245.55 31.032 1245.72 31.032H1245.88V32.664C1245.65 32.8453 1245.4 32.9627 1245.13 33.016C1244.88 33.08 1244.56 33.112 1244.19 33.112ZM1255.93 29.144C1255.93 28.5787 1255.92 28.2053 1255.91 28.024C1255.89 27.7253 1255.86 27.528 1255.83 27.432C1255.79 27.3253 1255.71 27.2613 1255.61 27.24C1255.5 27.208 1255.33 27.192 1255.09 27.192H1254.93V25.192C1255.35 24.8827 1255.89 24.728 1256.57 24.728C1257.53 24.728 1258.17 25.0213 1258.5 25.608C1258.65 25.864 1258.75 26.1787 1258.81 26.552C1258.86 26.9147 1258.89 27.3627 1258.89 27.896V33H1255.93V29.144ZM1251.3 24.84H1254.26V33H1251.3V24.84ZM1260.08 24.84H1261.59V22.472H1264.55V24.84H1266.34V27.096H1260.08V24.84ZM1261.59 27.736H1264.55V33H1261.59V27.736ZM1269.83 33.112C1268.87 33.112 1268.22 32.8187 1267.89 32.232C1267.74 31.976 1267.64 31.6667 1267.59 31.304C1267.53 30.9307 1267.51 30.4773 1267.51 29.944V24.84H1270.47V28.696C1270.47 29.2613 1270.47 29.6347 1270.48 29.816C1270.5 30.0827 1270.53 30.2747 1270.58 30.392C1270.62 30.5093 1270.69 30.584 1270.79 30.616C1270.88 30.6373 1271.05 30.648 1271.3 30.648H1271.46V32.648C1271.04 32.9573 1270.5 33.112 1269.83 33.112ZM1272.13 24.84H1275.09V33H1272.13V24.84ZM1145.8 51.8047C1146.22 51.8828 1146.58 51.9792 1146.91 52.0938C1147.23 52.2083 1147.51 52.3307 1147.73 52.4609C1147.96 52.5859 1148.15 52.7318 1148.31 52.8984C1148.47 53.0651 1148.6 53.2266 1148.69 53.3828C1148.78 53.5391 1148.85 53.7188 1148.91 53.9219C1148.96 54.125 1148.99 54.3125 1149.01 54.4844C1149.02 54.651 1149.03 54.8464 1149.03 55.0703C1149.03 55.487 1148.95 55.8854 1148.8 56.2656C1148.64 56.6458 1148.45 56.9609 1148.21 57.2109C1147.98 57.4557 1147.74 57.651 1147.49 57.7969C1147.24 57.9427 1147.02 58.0156 1146.81 58.0156C1146.7 58.0156 1146.65 57.9635 1146.65 57.8594C1146.65 57.7917 1146.69 57.7161 1146.77 57.6328C1147.04 57.3776 1147.23 57.0677 1147.36 56.7031C1147.48 56.3385 1147.55 56.0078 1147.55 55.7109C1147.55 55.5339 1147.54 55.3958 1147.54 55.2969C1147.53 55.1979 1147.52 55.0625 1147.48 54.8906C1147.46 54.7188 1147.42 54.5807 1147.36 54.4766C1147.31 54.3672 1147.23 54.2448 1147.12 54.1094C1147.01 53.9688 1146.88 53.8542 1146.72 53.7656C1146.56 53.6719 1146.36 53.5859 1146.12 53.5078C1145.88 53.4245 1145.6 53.3594 1145.29 53.3125C1144.89 53.2552 1144.54 53.1797 1144.22 53.0859C1143.91 52.987 1143.65 52.8828 1143.44 52.7734C1143.23 52.6641 1143.06 52.5365 1142.91 52.3906C1142.76 52.2448 1142.65 52.1094 1142.57 51.9844C1142.49 51.8542 1142.43 51.7083 1142.39 51.5469C1142.35 51.3854 1142.32 51.2526 1142.31 51.1484C1142.3 51.0391 1142.3 50.9167 1142.3 50.7812C1142.3 50.625 1142.32 50.4766 1142.37 50.3359C1142.44 50.112 1142.61 49.8984 1142.87 49.6953C1143.13 49.4922 1143.35 49.3906 1143.55 49.3906C1143.64 49.3906 1143.71 49.4115 1143.76 49.4531C1143.81 49.4896 1143.84 49.5703 1143.84 49.6953C1143.84 50.0911 1143.86 50.4036 1143.91 50.6328C1143.96 50.862 1144.07 51.0547 1144.23 51.2109C1144.39 51.3672 1144.58 51.4844 1144.81 51.5625C1145.04 51.6406 1145.37 51.7214 1145.8 51.8047ZM1144.53 58.2422C1144.14 58.2422 1143.79 58.1901 1143.48 58.0859C1143.19 57.987 1142.86 57.776 1142.51 57.4531C1142.34 57.2969 1142.25 57.1328 1142.25 56.9609C1142.25 56.8203 1142.31 56.6927 1142.42 56.5781C1142.77 56.2344 1143.08 56.0625 1143.35 56.0625C1143.53 56.0625 1143.73 56.1536 1143.95 56.3359C1144.25 56.5964 1144.5 56.7656 1144.7 56.8438C1144.9 56.9219 1145.14 56.9609 1145.41 56.9609C1145.64 56.9609 1145.85 56.9167 1146.04 56.8281C1146.24 56.7396 1146.35 56.6953 1146.39 56.6953C1146.52 56.6953 1146.59 56.7786 1146.59 56.9453C1146.59 57.0286 1146.55 57.1354 1146.48 57.2656C1146.42 57.3958 1146.31 57.5391 1146.16 57.6953C1146.02 57.8464 1145.81 57.974 1145.52 58.0781C1145.23 58.1875 1144.9 58.2422 1144.53 58.2422ZM1148.42 47.7266C1148.42 47.9297 1148.29 48.1328 1148.02 48.3359C1147.75 48.5391 1147.52 48.6406 1147.32 48.6406C1147.2 48.6406 1147.03 48.5938 1146.81 48.5C1146.6 48.4062 1146.36 48.3125 1146.09 48.2188C1145.82 48.125 1145.56 48.0781 1145.3 48.0781C1144.87 48.0781 1144.46 48.1615 1144.08 48.3281C1143.7 48.4896 1143.3 48.7474 1142.88 49.1016C1142.59 49.3359 1142.42 49.4531 1142.34 49.4531C1142.23 49.4531 1142.17 49.3906 1142.17 49.2656C1142.17 49.1823 1142.22 49.0547 1142.32 48.8828C1142.42 48.7109 1142.51 48.5703 1142.6 48.4609C1143.52 47.3516 1144.73 46.7969 1146.25 46.7969C1146.54 46.7969 1146.84 46.8333 1147.17 46.9062C1147.5 46.974 1147.79 47.0833 1148.04 47.2344C1148.29 47.3802 1148.42 47.5443 1148.42 47.7266ZM1153.69 49.7578C1154.88 49.7578 1155.75 50.1094 1156.3 50.8125C1156.87 51.5104 1157.15 52.5417 1157.15 53.9062C1157.15 54.3281 1157.09 54.7812 1156.98 55.2656C1156.88 55.7448 1156.74 56.1719 1156.55 56.5469C1156.36 56.9427 1156.11 57.2786 1155.83 57.5547C1155.54 57.8307 1155.31 57.9688 1155.13 57.9688C1155.02 57.9688 1154.97 57.9193 1154.97 57.8203C1154.97 57.7891 1154.99 57.7474 1155.02 57.6953C1155.06 57.6432 1155.11 57.5651 1155.17 57.4609C1155.23 57.3516 1155.29 57.2266 1155.34 57.0859C1155.55 56.5026 1155.66 55.6771 1155.66 54.6094C1155.66 54.0208 1155.61 53.5104 1155.53 53.0781C1155.45 52.6406 1155.32 52.2526 1155.13 51.9141C1154.95 51.5755 1154.7 51.3203 1154.37 51.1484C1154.04 50.9714 1153.64 50.8828 1153.16 50.8828C1152.51 50.8828 1151.83 51.1224 1151.13 51.6016C1151.11 51.6224 1151.07 51.651 1151.02 51.6875C1150.96 51.7188 1150.92 51.7448 1150.89 51.7656C1150.86 51.7865 1150.84 51.8047 1150.8 51.8203C1150.77 51.8359 1150.75 51.8438 1150.73 51.8438C1150.65 51.8438 1150.62 51.7995 1150.62 51.7109C1150.62 51.6536 1150.65 51.5703 1150.7 51.4609C1150.77 51.3516 1150.82 51.2708 1150.86 51.2188C1151.62 50.2448 1152.56 49.7578 1153.69 49.7578ZM1151.78 53.6875C1151.78 54.0521 1151.79 54.3646 1151.8 54.625C1151.82 54.8854 1151.85 55.1562 1151.89 55.4375C1151.94 55.7188 1152.01 55.9531 1152.09 56.1406C1152.19 56.3281 1152.3 56.5 1152.44 56.6562C1152.58 56.8125 1152.76 56.9297 1152.97 57.0078C1153.18 57.0807 1153.43 57.1172 1153.72 57.1172C1153.96 57.1172 1154.18 57.0833 1154.36 57.0156C1154.55 56.9479 1154.65 56.9141 1154.68 56.9141C1154.79 56.9141 1154.84 56.9714 1154.84 57.0859C1154.84 57.3203 1154.67 57.5729 1154.34 57.8438C1154 58.1094 1153.59 58.2422 1153.1 58.2422C1152.65 58.2422 1152.25 58.1667 1151.91 58.0156C1151.58 57.8646 1151.31 57.6667 1151.11 57.4219C1150.91 57.1771 1150.74 56.8698 1150.62 56.5C1150.5 56.1302 1150.42 55.7578 1150.38 55.3828C1150.33 55.0078 1150.31 54.5833 1150.31 54.1094C1150.31 53.8438 1150.34 53.5651 1150.39 53.2734C1150.44 52.9766 1150.51 52.75 1150.6 52.5938C1150.71 52.4062 1150.89 52.2344 1151.12 52.0781C1151.37 51.9219 1151.58 51.8438 1151.75 51.8438C1151.88 51.8438 1151.95 51.9219 1151.95 52.0781C1151.95 52.1042 1151.92 52.3047 1151.86 52.6797C1151.81 53.0547 1151.78 53.3906 1151.78 53.6875ZM1161.23 58.2422C1160.8 58.2422 1160.42 58.1849 1160.1 58.0703C1159.79 57.9609 1159.53 57.7786 1159.34 57.5234C1159.14 57.263 1158.99 56.9271 1158.9 56.5156C1158.8 56.1042 1158.76 55.5964 1158.76 54.9922V50.75C1158.76 50.6094 1158.79 50.4792 1158.87 50.3594C1158.95 50.2344 1159.04 50.1276 1159.15 50.0391C1159.26 49.9505 1159.39 49.8828 1159.52 49.8359C1159.65 49.7839 1159.78 49.7578 1159.89 49.7578C1160.07 49.7578 1160.16 49.8698 1160.16 50.0938V54.8516L1160.2 55.4531C1160.22 55.75 1160.26 56.0052 1160.32 56.2188C1160.38 56.4271 1160.48 56.599 1160.6 56.7344C1160.73 56.8646 1160.88 56.9609 1161.07 57.0234C1161.26 57.0859 1161.49 57.1172 1161.77 57.1172C1162.2 57.1172 1162.59 57.0156 1162.95 56.8125C1163.04 56.7552 1163.11 56.7266 1163.14 56.7266C1163.19 56.7266 1163.22 56.7448 1163.23 56.7812C1163.26 56.8177 1163.27 56.8958 1163.27 57.0156C1163.27 57.2344 1163.19 57.4219 1163.04 57.5781C1162.89 57.7292 1162.71 57.8542 1162.49 57.9531C1162.28 58.0521 1162.05 58.125 1161.82 58.1719C1161.59 58.2188 1161.4 58.2422 1161.23 58.2422ZM1165.07 50.0938V57.0938C1165.07 57.375 1164.94 57.6094 1164.68 57.7969C1164.42 57.9844 1164.18 58.0781 1163.94 58.0781C1163.76 58.0781 1163.66 57.9661 1163.66 57.7422V50.7422C1163.66 50.4714 1163.79 50.2396 1164.05 50.0469C1164.32 49.8542 1164.56 49.7578 1164.8 49.7578C1164.98 49.7578 1165.07 49.8698 1165.07 50.0938ZM1167.01 57.7422V53.8047C1167.01 53.513 1167.08 53.2891 1167.22 53.1328C1167.36 52.9714 1167.53 52.8255 1167.72 52.6953C1167.91 52.5599 1168.06 52.4922 1168.17 52.4922C1168.33 52.4922 1168.41 52.6042 1168.41 52.8281V57.0938C1168.41 57.3802 1168.29 57.6172 1168.03 57.8047C1167.78 57.987 1167.53 58.0781 1167.28 58.0781C1167.1 58.0781 1167.01 57.9661 1167.01 57.7422ZM1170.37 49.7578C1170.66 49.7578 1170.97 49.8229 1171.3 49.9531C1171.62 50.0833 1171.79 50.2526 1171.79 50.4609C1171.79 50.6276 1171.68 50.8021 1171.46 50.9844C1171.24 51.1615 1171.05 51.25 1170.88 51.25C1170.74 51.25 1170.54 51.1849 1170.29 51.0547C1170.05 50.9401 1169.83 50.8828 1169.63 50.8828C1169.51 50.8828 1169.39 50.9036 1169.27 50.9453C1169.16 50.9818 1169.03 51.0573 1168.88 51.1719C1168.72 51.2812 1168.6 51.3776 1168.5 51.4609C1168.41 51.5391 1168.24 51.6875 1168.01 51.9062C1167.78 52.1198 1167.6 52.2839 1167.47 52.3984C1167.35 52.4974 1167.26 52.5469 1167.18 52.5469C1167.07 52.5469 1167.01 52.4505 1167.01 52.2578V50.7422C1167.01 50.4609 1167.14 50.2266 1167.39 50.0391C1167.65 49.8516 1167.9 49.7578 1168.14 49.7578C1168.32 49.7578 1168.41 49.8698 1168.41 50.0938V50.5312C1168.41 50.6979 1168.45 50.7812 1168.52 50.7812C1168.58 50.7812 1168.67 50.7188 1168.8 50.5938C1169.35 50.0365 1169.88 49.7578 1170.37 49.7578ZM1173.99 54.0312C1173.99 56.0781 1174.72 57.1016 1176.18 57.1016C1176.48 57.1016 1176.77 57.0677 1177.03 57C1177.3 56.9271 1177.5 56.8464 1177.64 56.7578C1177.79 56.6693 1177.92 56.5911 1178.05 56.5234C1178.17 56.4505 1178.26 56.4141 1178.31 56.4141C1178.44 56.4141 1178.5 56.474 1178.5 56.5938C1178.5 56.7083 1178.43 56.8568 1178.3 57.0391C1178.16 57.2161 1177.98 57.3958 1177.75 57.5781C1177.52 57.7604 1177.22 57.9167 1176.86 58.0469C1176.5 58.1771 1176.12 58.2422 1175.73 58.2422C1174.64 58.2422 1173.83 57.9141 1173.3 57.2578C1172.78 56.5964 1172.52 55.6484 1172.52 54.4141C1172.52 53.5443 1172.63 52.9323 1172.87 52.5781C1172.99 52.3958 1173.17 52.2266 1173.41 52.0703C1173.66 51.9089 1173.87 51.8281 1174.04 51.8281C1174.16 51.8281 1174.23 51.901 1174.23 52.0469C1174.23 52.0521 1174.19 52.2786 1174.11 52.7266C1174.03 53.1745 1173.99 53.6094 1173.99 54.0312ZM1178.02 50.2109C1178.18 50.3307 1178.26 50.4531 1178.26 50.5781C1178.26 50.7083 1178.15 50.8672 1177.95 51.0547C1177.74 51.237 1177.54 51.3281 1177.37 51.3281C1177.22 51.3281 1177.04 51.2812 1176.84 51.1875C1176.4 50.9844 1176 50.8828 1175.64 50.8828C1174.85 50.8828 1174.09 51.138 1173.35 51.6484C1173.13 51.7995 1172.99 51.875 1172.95 51.875C1172.87 51.875 1172.84 51.8307 1172.84 51.7422C1172.84 51.6797 1172.86 51.5938 1172.92 51.4844C1172.98 51.375 1173.03 51.2917 1173.08 51.2344C1173.47 50.7292 1173.91 50.3568 1174.39 50.1172C1174.87 49.8776 1175.48 49.7578 1176.21 49.7578C1176.54 49.7578 1176.88 49.7969 1177.22 49.875C1177.56 49.9531 1177.83 50.0651 1178.02 50.2109ZM1181.3 53.0234C1181.3 53.1693 1181.35 53.263 1181.44 53.3047C1181.53 53.3411 1181.67 53.3594 1181.84 53.3594C1182.3 53.3594 1182.68 53.3203 1183.01 53.2422C1183.33 53.1641 1183.58 53.0547 1183.75 52.9141C1183.92 52.7734 1184.04 52.625 1184.12 52.4688C1184.2 52.3125 1184.23 52.1406 1184.23 51.9531C1184.23 51.6302 1184.12 51.3724 1183.9 51.1797C1183.67 50.9818 1183.32 50.8828 1182.82 50.8828C1182.04 50.8828 1181.32 51.1276 1180.63 51.6172C1180.43 51.7682 1180.3 51.8438 1180.25 51.8438C1180.16 51.8438 1180.12 51.7943 1180.12 51.6953C1180.12 51.5651 1180.19 51.4062 1180.34 51.2188C1180.62 50.8594 1180.95 50.5651 1181.3 50.3359C1181.66 50.1068 1181.99 49.9531 1182.29 49.875C1182.59 49.7969 1182.88 49.7578 1183.17 49.7578C1183.55 49.7578 1183.89 49.7969 1184.19 49.875C1184.49 49.9531 1184.76 50.0755 1184.99 50.2422C1185.23 50.4036 1185.41 50.6276 1185.54 50.9141C1185.67 51.1953 1185.73 51.526 1185.73 51.9062C1185.73 52.7188 1185.35 53.3464 1184.57 53.7891C1183.8 54.2266 1182.74 54.4453 1181.41 54.4453C1181.03 54.4453 1180.61 54.4245 1180.13 54.3828C1179.9 54.3672 1179.78 54.2526 1179.78 54.0391C1179.78 53.4609 1179.86 53.0286 1180.03 52.7422C1180.2 52.4505 1180.41 52.2266 1180.68 52.0703C1180.94 51.9193 1181.14 51.8438 1181.27 51.8438C1181.4 51.8438 1181.46 51.9219 1181.46 52.0781C1181.46 52.1406 1181.43 52.2943 1181.38 52.5391C1181.33 52.7786 1181.3 52.9401 1181.3 53.0234ZM1179.84 55.2031C1179.84 54.9323 1179.97 54.7969 1180.22 54.7969H1180.89C1181.03 54.7969 1181.12 54.8229 1181.17 54.875C1181.23 54.9271 1181.27 55.0417 1181.3 55.2188C1181.51 56.4844 1182.2 57.1172 1183.38 57.1172C1183.68 57.1172 1183.96 57.0807 1184.22 57.0078C1184.48 56.9349 1184.68 56.8542 1184.82 56.7656C1184.97 56.6771 1185.1 56.5964 1185.22 56.5234C1185.34 56.4505 1185.43 56.4141 1185.49 56.4141C1185.61 56.4141 1185.67 56.4792 1185.67 56.6094C1185.67 56.7188 1185.61 56.8594 1185.49 57.0312C1185.37 57.2031 1185.2 57.3828 1184.98 57.5703C1184.76 57.7526 1184.45 57.9089 1184.06 58.0391C1183.68 58.1745 1183.26 58.2422 1182.8 58.2422C1181.87 58.2422 1181.14 57.9609 1180.62 57.3984C1180.1 56.8307 1179.84 56.099 1179.84 55.2031ZM1188.95 55.8594V56.9141C1188.95 57.1693 1188.9 57.3594 1188.79 57.4844C1188.66 57.6406 1188.47 57.7786 1188.23 57.8984C1188 58.0182 1187.81 58.0781 1187.66 58.0781C1187.47 58.0781 1187.38 57.9661 1187.38 57.7422V56.6875C1187.38 56.4688 1187.44 56.2917 1187.55 56.1562C1187.68 56 1187.87 55.8568 1188.1 55.7266C1188.34 55.5911 1188.53 55.5234 1188.68 55.5234C1188.86 55.5234 1188.95 55.6354 1188.95 55.8594ZM1188.95 50.1016V51.1562C1188.95 51.4115 1188.9 51.6016 1188.79 51.7266C1188.66 51.8828 1188.47 52.0208 1188.23 52.1406C1188 52.2604 1187.81 52.3203 1187.66 52.3203C1187.47 52.3203 1187.38 52.2083 1187.38 51.9844V50.9297C1187.38 50.7109 1187.44 50.5339 1187.55 50.3984C1187.68 50.2422 1187.87 50.099 1188.1 49.9688C1188.34 49.8333 1188.53 49.7656 1188.68 49.7656C1188.86 49.7656 1188.95 49.8776 1188.95 50.1016ZM1194.3 46.992H1203.31V49.552H1194.3V46.992ZM1197.2 50.192H1200.4V58H1197.2V50.192ZM1204.37 46.112H1207.33V58H1204.37V46.112ZM1208.99 54.144C1208.99 53.5787 1208.98 53.2053 1208.97 53.024C1208.95 52.7253 1208.93 52.528 1208.89 52.432C1208.85 52.3253 1208.78 52.2613 1208.67 52.24C1208.56 52.208 1208.39 52.192 1208.16 52.192H1208V50.24C1208.42 49.8987 1208.97 49.728 1209.63 49.728C1210.59 49.728 1211.23 50.0213 1211.57 50.608C1211.71 50.864 1211.82 51.1787 1211.87 51.552C1211.92 51.9147 1211.95 52.3627 1211.95 52.896V58H1208.99V54.144ZM1217.15 53.12H1218.27C1218.27 52.5227 1218.21 52.1387 1218.09 51.968C1218.03 51.872 1217.94 51.8133 1217.84 51.792C1217.73 51.76 1217.57 51.744 1217.37 51.744H1217.15V49.712H1217.37C1218.29 49.712 1218.99 49.7867 1219.48 49.936C1219.98 50.0853 1220.35 50.3307 1220.59 50.672C1220.8 50.9707 1220.93 51.3547 1220.97 51.824C1221.02 52.2933 1221.05 52.9973 1221.05 53.936V54.576H1217.15V53.12ZM1217.69 58.128C1216.71 58.128 1215.94 58.048 1215.37 57.888C1214.82 57.7173 1214.4 57.4507 1214.12 57.088C1213.88 56.768 1213.72 56.3733 1213.64 55.904C1213.57 55.424 1213.53 54.768 1213.53 53.936C1213.53 53.168 1213.56 52.56 1213.61 52.112C1213.66 51.6533 1213.78 51.264 1213.95 50.944C1214.14 50.592 1214.43 50.32 1214.83 50.128C1215.23 49.9253 1215.78 49.7973 1216.48 49.744V54.576C1216.48 54.9387 1216.49 55.2 1216.52 55.36C1216.56 55.5093 1216.63 55.6213 1216.75 55.696C1216.88 55.7813 1217.07 55.8293 1217.34 55.84C1217.68 55.8613 1218.04 55.872 1218.43 55.872C1219.11 55.872 1219.61 55.856 1219.92 55.824L1220.73 55.76V57.824C1220.3 57.952 1219.72 58.0373 1218.97 58.08C1218.61 58.112 1218.18 58.128 1217.69 58.128ZM1226.96 46.992H1230.16V58H1226.96V46.992ZM1230.83 55.424H1234.26V58H1230.83V55.424ZM1239.67 52.944C1239.67 52.6667 1239.66 52.4693 1239.63 52.352C1239.61 52.2347 1239.55 52.1493 1239.44 52.096C1239.35 52.0427 1239.16 52.0053 1238.9 51.984C1238.74 51.9733 1238.39 51.968 1237.86 51.968C1237.35 51.968 1236.87 51.9893 1236.43 52.032L1235.59 52.08V50C1236.59 49.808 1237.67 49.712 1238.83 49.712C1239.73 49.712 1240.43 49.776 1240.93 49.904C1241.44 50.032 1241.83 50.2347 1242.08 50.512C1242.31 50.768 1242.45 51.0933 1242.51 51.488C1242.59 51.8827 1242.63 52.432 1242.63 53.136V58H1239.67V52.944ZM1237.3 58.112C1236.56 58.112 1236.02 57.9093 1235.67 57.504C1235.31 57.088 1235.14 56.464 1235.14 55.632C1235.14 55.12 1235.18 54.7093 1235.25 54.4C1235.32 54.08 1235.45 53.8293 1235.63 53.648C1235.82 53.456 1236.07 53.3227 1236.39 53.248C1236.71 53.1627 1237.13 53.12 1237.65 53.12L1238.99 53.152V54.576H1238.83C1238.59 54.576 1238.43 54.5813 1238.35 54.592C1238.14 54.6027 1238.03 54.704 1238.02 54.896C1238.01 54.96 1238 55.0933 1238 55.296C1238 55.456 1238.01 55.5787 1238.02 55.664C1238.04 55.7493 1238.07 55.8187 1238.11 55.872C1238.17 55.9467 1238.25 55.9893 1238.35 56C1238.5 56.0213 1238.66 56.032 1238.83 56.032H1238.99V57.664C1238.76 57.8453 1238.51 57.9627 1238.24 58.016C1237.99 58.08 1237.67 58.112 1237.3 58.112ZM1249.04 54.144C1249.04 53.5787 1249.03 53.2053 1249.02 53.024C1249 52.7253 1248.97 52.528 1248.94 52.432C1248.9 52.3253 1248.82 52.2613 1248.72 52.24C1248.61 52.208 1248.44 52.192 1248.2 52.192H1248.04V50.192C1248.46 49.8827 1249 49.728 1249.68 49.728C1250.64 49.728 1251.28 50.0213 1251.61 50.608C1251.76 50.864 1251.86 51.1787 1251.92 51.552C1251.97 51.9147 1252 52.3627 1252 52.896V58H1249.04V54.144ZM1244.41 49.84H1247.37V58H1244.41V49.84ZM1259.11 52.032C1258.85 51.9893 1258.46 51.968 1257.96 51.968C1257.63 51.968 1257.4 51.9893 1257.26 52.032V49.712C1258.02 49.7227 1258.8 49.8187 1259.61 50V52.08L1259.11 52.032ZM1257.15 58.128C1256.31 58.128 1255.65 58.0267 1255.16 57.824C1254.67 57.6213 1254.31 57.3227 1254.07 56.928C1253.86 56.5867 1253.72 56.1867 1253.66 55.728C1253.6 55.2693 1253.58 54.672 1253.58 53.936C1253.58 53.264 1253.6 52.704 1253.66 52.256C1253.71 51.808 1253.82 51.4133 1253.99 51.072C1254.2 50.6773 1254.5 50.3733 1254.91 50.16C1255.32 49.936 1255.88 49.7973 1256.59 49.744V53.92C1256.59 54.3893 1256.6 54.7413 1256.62 54.976C1256.65 55.2107 1256.71 55.392 1256.79 55.52C1256.89 55.648 1257.02 55.7387 1257.19 55.792C1257.38 55.8453 1257.63 55.872 1257.96 55.872C1258.53 55.872 1258.92 55.856 1259.13 55.824L1259.67 55.76V57.84C1258.88 58.032 1258.04 58.128 1257.15 58.128ZM1264.63 53.12H1265.75C1265.75 52.5227 1265.69 52.1387 1265.58 51.968C1265.51 51.872 1265.43 51.8133 1265.32 51.792C1265.21 51.76 1265.06 51.744 1264.86 51.744H1264.63V49.712H1264.86C1265.77 49.712 1266.48 49.7867 1266.97 49.936C1267.47 50.0853 1267.84 50.3307 1268.07 50.672C1268.29 50.9707 1268.41 51.3547 1268.46 51.824C1268.51 52.2933 1268.54 52.9973 1268.54 53.936V54.576H1264.63V53.12ZM1265.18 58.128C1264.19 58.128 1263.42 58.048 1262.86 57.888C1262.3 57.7173 1261.89 57.4507 1261.61 57.088C1261.36 56.768 1261.2 56.3733 1261.13 55.904C1261.05 55.424 1261.02 54.768 1261.02 53.936C1261.02 53.168 1261.04 52.56 1261.1 52.112C1261.15 51.6533 1261.26 51.264 1261.43 50.944C1261.62 50.592 1261.92 50.32 1262.31 50.128C1262.72 49.9253 1263.27 49.7973 1263.96 49.744V54.576C1263.96 54.9387 1263.98 55.2 1264.01 55.36C1264.04 55.5093 1264.11 55.6213 1264.23 55.696C1264.36 55.7813 1264.56 55.8293 1264.82 55.84C1265.17 55.8613 1265.53 55.872 1265.91 55.872C1266.59 55.872 1267.09 55.856 1267.4 55.824L1268.22 55.76V57.824C1267.79 57.952 1267.2 58.0373 1266.46 58.08C1266.09 58.112 1265.67 58.128 1265.18 58.128ZM1269.46 49.84H1270.96V47.472H1273.92V49.84H1275.72V52.096H1269.46V49.84ZM1270.96 52.736H1273.92V58H1270.96V52.736ZM1055.96 80.6719L1056.45 78.6016C1056.48 78.4557 1056.54 78.362 1056.63 78.3203C1056.73 78.2734 1056.88 78.25 1057.09 78.25C1057.43 78.25 1057.61 78.3333 1057.61 78.5C1057.61 78.5156 1057.6 78.5495 1057.59 78.6016L1057.29 79.8516C1057.22 80.1224 1057.07 80.3958 1056.84 80.6719C1056.62 80.9427 1056.41 81.0781 1056.2 81.0781C1056.12 81.0781 1056.06 81.0521 1056.02 81C1055.97 80.9531 1055.95 80.8854 1055.95 80.7969C1055.95 80.7656 1055.95 80.724 1055.96 80.6719ZM1059.71 80.6875L1060.19 78.6016C1060.22 78.4557 1060.28 78.362 1060.38 78.3203C1060.47 78.2734 1060.62 78.25 1060.83 78.25C1061.01 78.25 1061.14 78.2682 1061.23 78.3047C1061.31 78.3411 1061.35 78.4036 1061.35 78.4922C1061.35 78.513 1061.35 78.5495 1061.34 78.6016L1061.03 79.8516C1060.96 80.1224 1060.82 80.3958 1060.59 80.6719C1060.36 80.9427 1060.15 81.0781 1059.95 81.0781C1059.87 81.0781 1059.81 81.0521 1059.77 81C1059.72 80.9531 1059.7 80.888 1059.7 80.8047C1059.7 80.7786 1059.7 80.7396 1059.71 80.6875ZM1055.18 73.1406H1056.95C1057.09 73.1406 1057.16 73.2057 1057.16 73.3359C1057.16 73.5339 1057.1 73.7083 1057 73.8594C1056.9 74.0104 1056.74 74.0859 1056.53 74.0859H1056.17C1055.85 74.0859 1055.52 74.0208 1055.2 73.8906C1054.87 73.7552 1054.71 73.5859 1054.71 73.3828C1054.71 73.2214 1054.87 73.1406 1055.18 73.1406ZM1054.36 76.8438H1056.13C1056.27 76.8438 1056.34 76.9062 1056.34 77.0312C1056.34 77.2344 1056.28 77.4115 1056.18 77.5625C1056.08 77.7083 1055.93 77.7812 1055.72 77.7812H1055.35C1055.03 77.7812 1054.71 77.7161 1054.38 77.5859C1054.06 77.4557 1053.9 77.2865 1053.9 77.0781C1053.9 76.9219 1054.05 76.8438 1054.36 76.8438ZM1056.7 77.4609L1057.27 74.9062C1057.3 74.7604 1057.37 74.6667 1057.46 74.625C1057.56 74.5781 1057.71 74.5547 1057.91 74.5547C1058.1 74.5547 1058.24 74.5729 1058.32 74.6094C1058.4 74.6406 1058.45 74.7005 1058.45 74.7891C1058.45 74.8047 1058.38 75.1094 1058.24 75.7031C1058.11 76.2917 1058.05 76.5964 1058.05 76.6172C1058.05 76.7682 1058.14 76.8438 1058.33 76.8438L1059.86 76.8203C1060 76.8203 1060.07 76.8854 1060.07 77.0156C1060.07 77.2188 1060.02 77.3984 1059.91 77.5547C1059.82 77.7057 1059.66 77.7812 1059.45 77.7812H1056.97C1056.78 77.7812 1056.69 77.7031 1056.69 77.5469C1056.69 77.5104 1056.69 77.4818 1056.7 77.4609ZM1060.29 74.0859H1057.8C1057.62 74.0859 1057.52 74.0078 1057.52 73.8516C1057.52 73.8151 1057.53 73.7865 1057.53 73.7656L1058.14 71.1094C1058.2 70.8385 1058.35 70.5677 1058.58 70.2969C1058.81 70.0208 1059.03 69.8828 1059.24 69.8828C1059.4 69.8828 1059.48 69.9948 1059.48 70.2188C1059.48 70.3281 1059.39 70.7917 1059.19 71.6094C1058.99 72.4271 1058.9 72.8542 1058.9 72.8906C1058.9 73.0469 1058.99 73.125 1059.18 73.125H1060.71C1060.85 73.125 1060.91 73.1901 1060.91 73.3203C1060.91 73.5234 1060.86 73.7031 1060.76 73.8594C1060.66 74.0104 1060.5 74.0859 1060.29 74.0859ZM1064.66 74.0859H1061.52C1061.34 74.0859 1061.26 74.0156 1061.26 73.875C1061.26 73.8021 1061.47 72.8802 1061.88 71.1094C1061.95 70.8385 1062.09 70.5677 1062.32 70.2969C1062.55 70.0208 1062.78 69.8828 1062.98 69.8828C1063.15 69.8828 1063.23 69.9948 1063.23 70.2188C1063.23 70.2969 1063.13 70.7344 1062.93 71.5312C1062.74 72.3229 1062.64 72.7708 1062.64 72.875C1062.64 73.0312 1062.73 73.1094 1062.92 73.1094H1063.73C1064.04 73.1094 1064.36 73.1771 1064.68 73.3125C1065 73.4479 1065.16 73.6146 1065.16 73.8125C1065.16 73.9948 1065 74.0859 1064.66 74.0859ZM1063.9 77.7812H1060.68C1060.51 77.7812 1060.43 77.7109 1060.43 77.5703C1060.43 77.5495 1060.43 77.513 1060.45 77.4609L1061.02 74.9062C1061.05 74.7656 1061.11 74.6719 1061.2 74.625C1061.3 74.5781 1061.45 74.5547 1061.66 74.5547C1061.84 74.5547 1061.98 74.5729 1062.06 74.6094C1062.15 74.6406 1062.19 74.7005 1062.19 74.7891L1061.8 76.4844C1061.8 76.5052 1061.8 76.5339 1061.8 76.5703C1061.8 76.7266 1061.89 76.8047 1062.08 76.8047H1062.95C1063.27 76.8047 1063.58 76.8724 1063.91 77.0078C1064.23 77.1432 1064.4 77.3125 1064.4 77.5156C1064.4 77.6927 1064.23 77.7812 1063.9 77.7812ZM1067.46 75.5312C1067.51 75.75 1067.54 76.0286 1067.54 76.3672V79.9609C1067.54 80.2109 1067.49 80.4036 1067.38 80.5391C1067.26 80.6849 1067.1 80.8125 1066.91 80.9219C1066.71 81.026 1066.58 81.0781 1066.5 81.0781C1066.32 81.0781 1066.23 80.9661 1066.23 80.7422V73.3438C1066.23 73.2812 1066.24 73.2318 1066.27 73.1953C1066.3 73.1536 1066.34 73.1328 1066.39 73.1328C1066.47 73.1328 1066.55 73.2109 1066.62 73.3672C1066.71 73.5234 1066.85 73.8568 1067.06 74.3672C1067.28 74.9141 1067.41 75.3021 1067.46 75.5312ZM1069.38 79.0859L1066.27 71C1066.23 70.901 1066.21 70.8047 1066.21 70.7109C1066.21 70.5859 1066.26 70.4688 1066.36 70.3594C1066.48 70.2135 1066.64 70.099 1066.84 70.0156C1067.03 69.9271 1067.19 69.8828 1067.3 69.8828C1067.41 69.8828 1067.5 69.9089 1067.56 69.9609C1067.63 70.013 1067.69 70.1094 1067.75 70.25L1070.39 77.3516C1070.48 77.6068 1070.53 77.8151 1070.53 77.9766C1070.53 78.1068 1070.5 78.263 1070.44 78.4453C1070.31 78.763 1070.19 79.013 1070.07 79.1953C1069.96 79.3672 1069.84 79.4531 1069.72 79.4531C1069.66 79.4531 1069.6 79.4271 1069.55 79.375C1069.49 79.3229 1069.44 79.2266 1069.38 79.0859ZM1073.55 75.4297L1071.92 79.6719C1071.75 80.099 1071.48 80.4401 1071.11 80.6953C1070.75 80.9505 1070.47 81.0781 1070.27 81.0781C1070.12 81.0781 1070.04 81.0052 1070.04 80.8594C1070.04 80.7969 1070.07 80.7057 1070.12 80.5859L1073.31 72.1172C1073.41 71.9245 1073.48 71.8151 1073.54 71.7891C1073.57 71.7734 1073.6 71.7656 1073.63 71.7656C1073.75 71.7656 1073.83 71.8672 1073.86 72.0703C1073.89 72.2526 1073.91 72.6745 1073.91 73.3359C1073.91 73.7474 1073.88 74.1094 1073.84 74.4219C1073.79 74.7292 1073.7 75.0651 1073.55 75.4297ZM1075.95 70.2188V79.9141C1075.95 80.1693 1075.89 80.3594 1075.79 80.4844C1075.66 80.6406 1075.47 80.7786 1075.23 80.8984C1074.99 81.0182 1074.79 81.0781 1074.64 81.0781C1074.46 81.0781 1074.38 80.9661 1074.38 80.7422V71.0469C1074.38 70.8281 1074.43 70.6536 1074.53 70.5234C1074.67 70.362 1074.85 70.2161 1075.09 70.0859C1075.33 69.9505 1075.53 69.8828 1075.67 69.8828C1075.85 69.8828 1075.95 69.9948 1075.95 70.2188ZM1081.2 72.7578C1081.64 72.7578 1082.03 72.8151 1082.38 72.9297C1082.73 73.0443 1083.03 73.2292 1083.27 73.4844C1083.51 73.7344 1083.69 74.0599 1083.81 74.4609C1083.94 74.8568 1084.01 75.3359 1084.01 75.8984V80.1328C1084.01 80.263 1083.97 80.3854 1083.88 80.5C1083.8 80.6146 1083.71 80.7161 1083.59 80.8047C1083.47 80.888 1083.35 80.9531 1083.21 81C1083.08 81.0521 1082.97 81.0781 1082.87 81.0781C1082.68 81.0781 1082.59 80.9661 1082.59 80.7422V76.1875C1082.59 74.651 1081.98 73.8828 1080.77 73.8828C1080.06 73.8828 1079.41 74.0781 1078.84 74.4688C1078.61 74.6198 1078.46 74.6953 1078.39 74.6953C1078.31 74.6953 1078.27 74.6536 1078.27 74.5703C1078.27 74.4245 1078.35 74.2526 1078.52 74.0547C1079.22 73.1901 1080.12 72.7578 1081.2 72.7578ZM1082 80.5625C1081.78 80.7604 1081.51 80.9219 1081.19 81.0469C1080.86 81.1771 1080.55 81.2422 1080.26 81.2422C1079.57 81.2422 1079.03 81.0599 1078.66 80.6953C1078.3 80.3255 1078.12 79.8724 1078.12 79.3359C1078.12 78.9505 1078.25 78.6562 1078.52 78.4531C1078.76 78.2656 1078.96 78.1719 1079.14 78.1719C1079.2 78.1719 1079.25 78.1927 1079.29 78.2344C1079.33 78.276 1079.35 78.3385 1079.35 78.4219C1079.35 79.0156 1079.45 79.4479 1079.66 79.7188C1079.86 79.9844 1080.22 80.1172 1080.74 80.1172C1080.9 80.1172 1081.09 80.0911 1081.31 80.0391C1081.54 79.9818 1081.73 79.9062 1081.88 79.8125C1081.98 79.7552 1082.05 79.7266 1082.09 79.7266C1082.17 79.7266 1082.2 79.8229 1082.2 80.0156C1082.2 80.2552 1082.14 80.4375 1082 80.5625ZM1081.94 76.3438C1082.04 76.3958 1082.1 76.4661 1082.14 76.5547C1082.18 76.638 1082.2 76.7969 1082.2 77.0312C1082.2 77.2396 1082.18 77.3906 1082.14 77.4844C1082.11 77.5729 1082.05 77.6172 1081.96 77.6172C1081.9 77.6172 1081.82 77.5938 1081.72 77.5469C1081.23 77.3333 1080.79 77.2266 1080.39 77.2266C1079.75 77.2266 1079.14 77.4583 1078.56 77.9219C1078.38 78.0677 1078.26 78.1406 1078.2 78.1406C1078.11 78.1406 1078.07 78.0938 1078.07 78C1078.07 77.8542 1078.12 77.6953 1078.23 77.5234C1078.5 77.0599 1078.86 76.7083 1079.31 76.4688C1079.77 76.224 1080.27 76.1016 1080.82 76.1016C1081.24 76.1016 1081.61 76.1823 1081.94 76.3438ZM1085.95 80.7422V69.9844C1085.95 69.7031 1086.07 69.4688 1086.33 69.2812C1086.59 69.0938 1086.84 69 1087.08 69C1087.26 69 1087.35 69.112 1087.35 69.3359V80.0938C1087.35 80.3802 1087.22 80.6172 1086.97 80.8047C1086.71 80.987 1086.46 81.0781 1086.22 81.0781C1086.04 81.0781 1085.95 80.9661 1085.95 80.7422ZM1091.68 80.5078C1091.46 80.888 1091.21 81.0781 1090.95 81.0781C1090.82 81.0781 1090.69 80.9818 1090.56 80.7891L1087.88 76.8594C1087.79 76.724 1087.74 76.6146 1087.74 76.5312C1087.74 76.401 1087.81 76.2578 1087.95 76.1016L1090.26 73.5312C1090.48 73.2865 1090.67 73.138 1090.85 73.0859C1091.03 73.0339 1091.33 73.0052 1091.74 73C1091.9 73 1091.98 73.0651 1091.98 73.1953C1091.98 73.2891 1091.91 73.4115 1091.76 73.5625L1089.44 75.9609C1089.31 76.0964 1089.25 76.2109 1089.25 76.3047C1089.25 76.3828 1089.29 76.4792 1089.38 76.5938L1091.66 79.7188C1091.76 79.8594 1091.8 79.987 1091.8 80.1016C1091.8 80.2318 1091.76 80.3672 1091.68 80.5078ZM1094.54 76.0234C1094.54 76.1693 1094.58 76.263 1094.67 76.3047C1094.77 76.3411 1094.9 76.3594 1095.08 76.3594C1095.53 76.3594 1095.92 76.3203 1096.24 76.2422C1096.57 76.1641 1096.81 76.0547 1096.98 75.9141C1097.16 75.7734 1097.28 75.625 1097.35 75.4688C1097.43 75.3125 1097.47 75.1406 1097.47 74.9531C1097.47 74.6302 1097.36 74.3724 1097.13 74.1797C1096.91 73.9818 1096.55 73.8828 1096.05 73.8828C1095.28 73.8828 1094.55 74.1276 1093.87 74.6172C1093.66 74.7682 1093.54 74.8438 1093.48 74.8438C1093.4 74.8438 1093.35 74.7943 1093.35 74.6953C1093.35 74.5651 1093.43 74.4062 1093.58 74.2188C1093.86 73.8594 1094.18 73.5651 1094.54 73.3359C1094.9 73.1068 1095.23 72.9531 1095.52 72.875C1095.82 72.7969 1096.11 72.7578 1096.41 72.7578C1096.78 72.7578 1097.12 72.7969 1097.42 72.875C1097.72 72.9531 1097.99 73.0755 1098.23 73.2422C1098.46 73.4036 1098.64 73.6276 1098.77 73.9141C1098.9 74.1953 1098.97 74.526 1098.97 74.9062C1098.97 75.7188 1098.58 76.3464 1097.8 76.7891C1097.03 77.2266 1095.98 77.4453 1094.64 77.4453C1094.27 77.4453 1093.84 77.4245 1093.37 77.3828C1093.13 77.3672 1093.02 77.2526 1093.02 77.0391C1093.02 76.4609 1093.1 76.0286 1093.27 75.7422C1093.43 75.4505 1093.65 75.2266 1093.91 75.0703C1094.17 74.9193 1094.37 74.8438 1094.51 74.8438C1094.63 74.8438 1094.7 74.9219 1094.7 75.0781C1094.7 75.1406 1094.67 75.2943 1094.62 75.5391C1094.57 75.7786 1094.54 75.9401 1094.54 76.0234ZM1093.08 78.2031C1093.08 77.9323 1093.2 77.7969 1093.45 77.7969H1094.12C1094.26 77.7969 1094.35 77.8229 1094.41 77.875C1094.46 77.9271 1094.51 78.0417 1094.54 78.2188C1094.74 79.4844 1095.43 80.1172 1096.62 80.1172C1096.91 80.1172 1097.19 80.0807 1097.45 80.0078C1097.71 79.9349 1097.91 79.8542 1098.05 79.7656C1098.2 79.6771 1098.33 79.5964 1098.45 79.5234C1098.58 79.4505 1098.67 79.4141 1098.73 79.4141C1098.85 79.4141 1098.91 79.4792 1098.91 79.6094C1098.91 79.7188 1098.85 79.8594 1098.73 80.0312C1098.61 80.2031 1098.43 80.3828 1098.21 80.5703C1097.99 80.7526 1097.69 80.9089 1097.3 81.0391C1096.91 81.1745 1096.49 81.2422 1096.04 81.2422C1095.1 81.2422 1094.37 80.9609 1093.85 80.3984C1093.34 79.8307 1093.08 79.099 1093.08 78.2031ZM1103.67 72.7578C1104.86 72.7578 1105.73 73.1094 1106.29 73.8125C1106.85 74.5104 1107.13 75.5417 1107.13 76.9062C1107.13 77.3281 1107.08 77.7812 1106.97 78.2656C1106.86 78.7448 1106.72 79.1719 1106.54 79.5469C1106.34 79.9427 1106.1 80.2786 1105.81 80.5547C1105.53 80.8307 1105.29 80.9688 1105.12 80.9688C1105.01 80.9688 1104.95 80.9193 1104.95 80.8203C1104.95 80.7891 1104.97 80.7474 1105.01 80.6953C1105.04 80.6432 1105.09 80.5651 1105.16 80.4609C1105.22 80.3516 1105.27 80.2266 1105.32 80.0859C1105.53 79.5026 1105.64 78.6771 1105.64 77.6094C1105.64 77.0208 1105.6 76.5104 1105.52 76.0781C1105.44 75.6406 1105.3 75.2526 1105.12 74.9141C1104.93 74.5755 1104.68 74.3203 1104.35 74.1484C1104.02 73.9714 1103.62 73.8828 1103.15 73.8828C1102.49 73.8828 1101.82 74.1224 1101.12 74.6016C1101.09 74.6224 1101.05 74.651 1101 74.6875C1100.95 74.7188 1100.91 74.7448 1100.88 74.7656C1100.85 74.7865 1100.82 74.8047 1100.79 74.8203C1100.76 74.8359 1100.73 74.8438 1100.71 74.8438C1100.64 74.8438 1100.6 74.7995 1100.6 74.7109C1100.6 74.6536 1100.63 74.5703 1100.69 74.4609C1100.75 74.3516 1100.8 74.2708 1100.84 74.2188C1101.6 73.2448 1102.55 72.7578 1103.67 72.7578ZM1101.77 76.6875C1101.77 77.0521 1101.77 77.3646 1101.79 77.625C1101.8 77.8854 1101.83 78.1562 1101.88 78.4375C1101.92 78.7188 1101.99 78.9531 1102.08 79.1406C1102.17 79.3281 1102.29 79.5 1102.42 79.6562C1102.56 79.8125 1102.74 79.9297 1102.95 80.0078C1103.17 80.0807 1103.42 80.1172 1103.7 80.1172C1103.95 80.1172 1104.16 80.0833 1104.34 80.0156C1104.53 79.9479 1104.64 79.9141 1104.66 79.9141C1104.77 79.9141 1104.83 79.9714 1104.83 80.0859C1104.83 80.3203 1104.66 80.5729 1104.32 80.8438C1103.99 81.1094 1103.58 81.2422 1103.09 81.2422C1102.63 81.2422 1102.24 81.1667 1101.9 81.0156C1101.57 80.8646 1101.3 80.6667 1101.09 80.4219C1100.89 80.1771 1100.73 79.8698 1100.6 79.5C1100.48 79.1302 1100.4 78.7578 1100.36 78.3828C1100.32 78.0078 1100.3 77.5833 1100.3 77.1094C1100.3 76.8438 1100.32 76.5651 1100.38 76.2734C1100.43 75.9766 1100.5 75.75 1100.59 75.5938C1100.7 75.4062 1100.87 75.2344 1101.11 75.0781C1101.35 74.9219 1101.56 74.8438 1101.73 74.8438C1101.86 74.8438 1101.93 74.9219 1101.93 75.0781C1101.93 75.1042 1101.9 75.3047 1101.84 75.6797C1101.79 76.0547 1101.77 76.3906 1101.77 76.6875ZM1114.7 73.2031L1112.53 80.0703C1112.44 80.3672 1112.26 80.6094 1112.01 80.7969C1111.76 80.9844 1111.51 81.0781 1111.27 81.0781C1111.09 81.0781 1111 80.9948 1111 80.8281C1111 80.7656 1111.02 80.6901 1111.05 80.6016L1113.16 73.7656C1113.22 73.5417 1113.29 73.3776 1113.38 73.2734C1113.51 73.1224 1113.68 73 1113.91 72.9062C1114.14 72.8073 1114.33 72.7578 1114.5 72.7578C1114.57 72.7578 1114.63 72.7812 1114.67 72.8281C1114.72 72.875 1114.74 72.9375 1114.74 73.0156C1114.74 73.0625 1114.73 73.125 1114.7 73.2031ZM1111.09 78.8281C1111.09 79.1198 1111.02 79.4271 1110.88 79.75C1110.74 80.0677 1110.61 80.2266 1110.5 80.2266C1110.38 80.2266 1110.27 80.1094 1110.2 79.875L1108.16 73.8516C1108.13 73.7422 1108.11 73.6589 1108.11 73.6016C1108.11 73.4141 1108.23 73.2266 1108.48 73.0391C1108.73 72.8516 1108.94 72.7578 1109.09 72.7578C1109.23 72.7578 1109.33 72.8698 1109.4 73.0938L1110.98 78.25C1111.05 78.5104 1111.09 78.7031 1111.09 78.8281ZM1117.23 76.0234C1117.23 76.1693 1117.27 76.263 1117.36 76.3047C1117.45 76.3411 1117.59 76.3594 1117.77 76.3594C1118.22 76.3594 1118.61 76.3203 1118.93 76.2422C1119.25 76.1641 1119.5 76.0547 1119.67 75.9141C1119.84 75.7734 1119.97 75.625 1120.04 75.4688C1120.12 75.3125 1120.16 75.1406 1120.16 74.9531C1120.16 74.6302 1120.04 74.3724 1119.82 74.1797C1119.6 73.9818 1119.24 73.8828 1118.74 73.8828C1117.97 73.8828 1117.24 74.1276 1116.55 74.6172C1116.35 74.7682 1116.22 74.8438 1116.17 74.8438C1116.08 74.8438 1116.04 74.7943 1116.04 74.6953C1116.04 74.5651 1116.11 74.4062 1116.27 74.2188C1116.55 73.8594 1116.87 73.5651 1117.23 73.3359C1117.59 73.1068 1117.91 72.9531 1118.21 72.875C1118.51 72.7969 1118.8 72.7578 1119.09 72.7578C1119.47 72.7578 1119.81 72.7969 1120.11 72.875C1120.41 72.9531 1120.68 73.0755 1120.91 73.2422C1121.15 73.4036 1121.33 73.6276 1121.46 73.9141C1121.59 74.1953 1121.66 74.526 1121.66 74.9062C1121.66 75.7188 1121.27 76.3464 1120.49 76.7891C1119.72 77.2266 1118.67 77.4453 1117.33 77.4453C1116.95 77.4453 1116.53 77.4245 1116.05 77.3828C1115.82 77.3672 1115.7 77.2526 1115.7 77.0391C1115.7 76.4609 1115.79 76.0286 1115.95 75.7422C1116.12 75.4505 1116.34 75.2266 1116.6 75.0703C1116.86 74.9193 1117.06 74.8438 1117.2 74.8438C1117.32 74.8438 1117.38 74.9219 1117.38 75.0781C1117.38 75.1406 1117.36 75.2943 1117.3 75.5391C1117.25 75.7786 1117.23 75.9401 1117.23 76.0234ZM1115.77 78.2031C1115.77 77.9323 1115.89 77.7969 1116.14 77.7969H1116.81C1116.95 77.7969 1117.04 77.8229 1117.09 77.875C1117.15 77.9271 1117.2 78.0417 1117.23 78.2188C1117.43 79.4844 1118.12 80.1172 1119.3 80.1172C1119.6 80.1172 1119.88 80.0807 1120.14 80.0078C1120.4 79.9349 1120.6 79.8542 1120.74 79.7656C1120.89 79.6771 1121.02 79.5964 1121.14 79.5234C1121.27 79.4505 1121.36 79.4141 1121.41 79.4141C1121.53 79.4141 1121.59 79.4792 1121.59 79.6094C1121.59 79.7188 1121.53 79.8594 1121.41 80.0312C1121.29 80.2031 1121.12 80.3828 1120.9 80.5703C1120.68 80.7526 1120.38 80.9089 1119.98 81.0391C1119.6 81.1745 1119.18 81.2422 1118.73 81.2422C1117.79 81.2422 1117.06 80.9609 1116.54 80.3984C1116.02 79.8307 1115.77 79.099 1115.77 78.2031ZM1123.24 80.7422V76.8047C1123.24 76.513 1123.31 76.2891 1123.45 76.1328C1123.59 75.9714 1123.76 75.8255 1123.95 75.6953C1124.15 75.5599 1124.3 75.4922 1124.41 75.4922C1124.57 75.4922 1124.65 75.6042 1124.65 75.8281V80.0938C1124.65 80.3802 1124.52 80.6172 1124.27 80.8047C1124.01 80.987 1123.76 81.0781 1123.52 81.0781C1123.33 81.0781 1123.24 80.9661 1123.24 80.7422ZM1126.6 72.7578C1126.9 72.7578 1127.21 72.8229 1127.53 72.9531C1127.86 73.0833 1128.02 73.2526 1128.02 73.4609C1128.02 73.6276 1127.91 73.8021 1127.7 73.9844C1127.48 74.1615 1127.28 74.25 1127.12 74.25C1126.98 74.25 1126.78 74.1849 1126.52 74.0547C1126.28 73.9401 1126.07 73.8828 1125.87 73.8828C1125.74 73.8828 1125.62 73.9036 1125.51 73.9453C1125.39 73.9818 1125.26 74.0573 1125.11 74.1719C1124.96 74.2812 1124.83 74.3776 1124.73 74.4609C1124.64 74.5391 1124.48 74.6875 1124.24 74.9062C1124.01 75.1198 1123.83 75.2839 1123.7 75.3984C1123.59 75.4974 1123.49 75.5469 1123.41 75.5469C1123.3 75.5469 1123.24 75.4505 1123.24 75.2578V73.7422C1123.24 73.4609 1123.37 73.2266 1123.62 73.0391C1123.89 72.8516 1124.14 72.7578 1124.38 72.7578C1124.56 72.7578 1124.65 72.8698 1124.65 73.0938V73.5312C1124.65 73.6979 1124.68 73.7812 1124.76 73.7812C1124.82 73.7812 1124.91 73.7188 1125.03 73.5938C1125.59 73.0365 1126.11 72.7578 1126.6 72.7578ZM1130.32 75.5312C1130.37 75.75 1130.4 76.0286 1130.4 76.3672V79.9609C1130.4 80.2109 1130.35 80.4036 1130.24 80.5391C1130.12 80.6849 1129.96 80.8125 1129.77 80.9219C1129.57 81.026 1129.44 81.0781 1129.36 81.0781C1129.18 81.0781 1129.09 80.9661 1129.09 80.7422V73.3438C1129.09 73.2812 1129.1 73.2318 1129.13 73.1953C1129.16 73.1536 1129.2 73.1328 1129.25 73.1328C1129.33 73.1328 1129.41 73.2109 1129.48 73.3672C1129.57 73.5234 1129.71 73.8568 1129.92 74.3672C1130.14 74.9141 1130.27 75.3021 1130.32 75.5312ZM1132.24 79.0859L1129.13 71C1129.09 70.901 1129.07 70.8047 1129.07 70.7109C1129.07 70.5859 1129.12 70.4688 1129.22 70.3594C1129.34 70.2135 1129.5 70.099 1129.7 70.0156C1129.89 69.9271 1130.05 69.8828 1130.16 69.8828C1130.27 69.8828 1130.36 69.9089 1130.42 69.9609C1130.49 70.013 1130.55 70.1094 1130.61 70.25L1133.25 77.3516C1133.34 77.6068 1133.39 77.8151 1133.39 77.9766C1133.39 78.1068 1133.36 78.263 1133.3 78.4453C1133.17 78.763 1133.05 79.013 1132.93 79.1953C1132.82 79.3672 1132.7 79.4531 1132.58 79.4531C1132.52 79.4531 1132.46 79.4271 1132.41 79.375C1132.35 79.3229 1132.3 79.2266 1132.24 79.0859ZM1136.41 75.4297L1134.78 79.6719C1134.61 80.099 1134.34 80.4401 1133.97 80.6953C1133.61 80.9505 1133.33 81.0781 1133.13 81.0781C1132.98 81.0781 1132.9 81.0052 1132.9 80.8594C1132.9 80.7969 1132.92 80.7057 1132.98 80.5859L1136.17 72.1172C1136.27 71.9245 1136.34 71.8151 1136.4 71.7891C1136.43 71.7734 1136.46 71.7656 1136.49 71.7656C1136.61 71.7656 1136.69 71.8672 1136.72 72.0703C1136.75 72.2526 1136.77 72.6745 1136.77 73.3359C1136.77 73.7474 1136.74 74.1094 1136.7 74.4219C1136.65 74.7292 1136.56 75.0651 1136.41 75.4297ZM1138.8 70.2188V79.9141C1138.8 80.1693 1138.75 80.3594 1138.65 80.4844C1138.52 80.6406 1138.33 80.7786 1138.09 80.8984C1137.85 81.0182 1137.65 81.0781 1137.5 81.0781C1137.32 81.0781 1137.23 80.9661 1137.23 80.7422V71.0469C1137.23 70.8281 1137.29 70.6536 1137.39 70.5234C1137.53 70.362 1137.71 70.2161 1137.95 70.0859C1138.19 69.9505 1138.39 69.8828 1138.53 69.8828C1138.71 69.8828 1138.8 69.9948 1138.8 70.2188ZM1144.09 72.7578C1145.28 72.7578 1146.15 73.1094 1146.71 73.8125C1147.27 74.5104 1147.55 75.5417 1147.55 76.9062C1147.55 77.3281 1147.5 77.7812 1147.39 78.2656C1147.29 78.7448 1147.14 79.1719 1146.96 79.5469C1146.76 79.9427 1146.52 80.2786 1146.23 80.5547C1145.95 80.8307 1145.72 80.9688 1145.54 80.9688C1145.43 80.9688 1145.38 80.9193 1145.38 80.8203C1145.38 80.7891 1145.39 80.7474 1145.43 80.6953C1145.47 80.6432 1145.52 80.5651 1145.58 80.4609C1145.64 80.3516 1145.7 80.2266 1145.74 80.0859C1145.96 79.5026 1146.06 78.6771 1146.06 77.6094C1146.06 77.0208 1146.02 76.5104 1145.94 76.0781C1145.86 75.6406 1145.73 75.2526 1145.54 74.9141C1145.36 74.5755 1145.1 74.3203 1144.77 74.1484C1144.45 73.9714 1144.04 73.8828 1143.57 73.8828C1142.91 73.8828 1142.24 74.1224 1141.54 74.6016C1141.51 74.6224 1141.47 74.651 1141.42 74.6875C1141.37 74.7188 1141.33 74.7448 1141.3 74.7656C1141.27 74.7865 1141.24 74.8047 1141.21 74.8203C1141.18 74.8359 1141.15 74.8438 1141.13 74.8438C1141.06 74.8438 1141.02 74.7995 1141.02 74.7109C1141.02 74.6536 1141.05 74.5703 1141.11 74.4609C1141.17 74.3516 1141.22 74.2708 1141.27 74.2188C1142.03 73.2448 1142.97 72.7578 1144.09 72.7578ZM1142.19 76.6875C1142.19 77.0521 1142.2 77.3646 1142.21 77.625C1142.23 77.8854 1142.26 78.1562 1142.3 78.4375C1142.34 78.7188 1142.41 78.9531 1142.5 79.1406C1142.59 79.3281 1142.71 79.5 1142.84 79.6562C1142.98 79.8125 1143.16 79.9297 1143.38 80.0078C1143.59 80.0807 1143.84 80.1172 1144.12 80.1172C1144.37 80.1172 1144.58 80.0833 1144.77 80.0156C1144.95 79.9479 1145.06 79.9141 1145.09 79.9141C1145.2 79.9141 1145.25 79.9714 1145.25 80.0859C1145.25 80.3203 1145.08 80.5729 1144.74 80.8438C1144.41 81.1094 1144 81.2422 1143.51 81.2422C1143.05 81.2422 1142.66 81.1667 1142.32 81.0156C1141.99 80.8646 1141.72 80.6667 1141.52 80.4219C1141.31 80.1771 1141.15 79.8698 1141.02 79.5C1140.9 79.1302 1140.82 78.7578 1140.78 78.3828C1140.74 78.0078 1140.72 77.5833 1140.72 77.1094C1140.72 76.8438 1140.74 76.5651 1140.8 76.2734C1140.85 75.9766 1140.92 75.75 1141.01 75.5938C1141.12 75.4062 1141.29 75.2344 1141.53 75.0781C1141.78 74.9219 1141.98 74.8438 1142.16 74.8438C1142.29 74.8438 1142.35 74.9219 1142.35 75.0781C1142.35 75.1042 1142.32 75.3047 1142.27 75.6797C1142.21 76.0547 1142.19 76.3906 1142.19 76.6875ZM1149.26 80.7422V76.5391C1149.26 76.2474 1149.33 76.0234 1149.47 75.8672C1149.61 75.7057 1149.78 75.5625 1149.97 75.4375C1150.16 75.3073 1150.31 75.2422 1150.42 75.2422C1150.58 75.2422 1150.66 75.3542 1150.66 75.5781V80.0703C1150.66 80.3568 1150.53 80.5964 1150.27 80.7891C1150.02 80.9818 1149.77 81.0781 1149.53 81.0781C1149.35 81.0781 1149.26 80.9661 1149.26 80.7422ZM1151.09 73.4219C1151.39 73.2031 1151.7 73.0391 1152.02 72.9297C1152.35 72.8151 1152.64 72.7578 1152.89 72.7578C1153.8 72.7578 1154.46 73.013 1154.88 73.5234C1155.3 74.0286 1155.52 74.8776 1155.52 76.0703V80.0703C1155.52 80.3516 1155.39 80.5911 1155.13 80.7891C1154.88 80.9818 1154.63 81.0781 1154.38 81.0781C1154.2 81.0781 1154.11 80.9661 1154.11 80.7422V77.6562C1154.11 77.1667 1154.1 76.7969 1154.09 76.5469C1154.09 76.2969 1154.07 75.9974 1154.03 75.6484C1154 75.2995 1153.95 75.0417 1153.87 74.875C1153.79 74.7031 1153.68 74.5286 1153.55 74.3516C1153.42 74.1745 1153.24 74.0521 1153.03 73.9844C1152.82 73.9167 1152.56 73.8828 1152.27 73.8828C1151.67 73.8828 1150.85 74.2812 1149.8 75.0781C1149.64 75.2083 1149.51 75.2734 1149.41 75.2734C1149.31 75.2734 1149.26 75.1849 1149.26 75.0078V73.7656C1149.26 73.4844 1149.39 73.2474 1149.64 73.0547C1149.9 72.8568 1150.15 72.7578 1150.39 72.7578C1150.57 72.7578 1150.66 72.8698 1150.66 73.0938V73.2891C1150.66 73.4766 1150.71 73.5703 1150.79 73.5703C1150.86 73.5703 1150.96 73.5208 1151.09 73.4219ZM1162.36 80.7422V70.0078C1162.36 69.8047 1162.41 69.6458 1162.5 69.5312C1162.64 69.375 1162.79 69.2474 1162.98 69.1484C1163.16 69.0495 1163.34 69 1163.49 69C1163.67 69 1163.77 69.112 1163.77 69.3359V80.0703C1163.77 80.2682 1163.72 80.4297 1163.62 80.5547C1163.49 80.7109 1163.33 80.8385 1163.14 80.9375C1162.96 81.0312 1162.79 81.0781 1162.63 81.0781C1162.45 81.0781 1162.36 80.9661 1162.36 80.7422ZM1161.7 79.7812C1161.77 79.7448 1161.82 79.7266 1161.84 79.7266C1161.92 79.7266 1161.97 79.8203 1161.97 80.0078C1161.97 80.263 1161.9 80.4557 1161.76 80.5859C1161.25 81.0234 1160.66 81.2422 1159.98 81.2422C1159.75 81.2422 1159.54 81.2292 1159.35 81.2031C1159.16 81.1771 1158.97 81.1276 1158.77 81.0547C1158.57 80.9818 1158.39 80.8854 1158.23 80.7656C1158.08 80.6458 1157.93 80.487 1157.78 80.2891C1157.64 80.0859 1157.52 79.8516 1157.42 79.5859C1157.33 79.3203 1157.25 79 1157.2 78.625C1157.14 78.2448 1157.11 77.8203 1157.11 77.3516C1157.11 77.0234 1157.14 76.6927 1157.21 76.3594C1157.28 76.026 1157.37 75.7786 1157.48 75.6172C1157.61 75.4141 1157.8 75.2344 1158.04 75.0781C1158.28 74.9167 1158.49 74.8359 1158.66 74.8359C1158.79 74.8359 1158.85 74.9141 1158.85 75.0703C1158.85 75.1068 1158.83 75.2214 1158.78 75.4141C1158.74 75.6068 1158.7 75.8672 1158.65 76.1953C1158.6 76.5182 1158.58 76.8568 1158.58 77.2109C1158.58 78.2005 1158.73 78.9323 1159.04 79.4062C1159.35 79.8802 1159.86 80.1172 1160.57 80.1172C1160.9 80.1172 1161.28 80.0052 1161.7 79.7812ZM1161.52 74.25C1161.11 74.0104 1160.66 73.8906 1160.16 73.8906C1159.78 73.8906 1159.42 73.9505 1159.09 74.0703C1158.75 74.1901 1158.39 74.3776 1158.01 74.6328C1157.79 74.7734 1157.67 74.8438 1157.62 74.8438C1157.54 74.8438 1157.49 74.7943 1157.49 74.6953C1157.49 74.5651 1157.57 74.4062 1157.72 74.2188C1158.41 73.2448 1159.34 72.7578 1160.52 72.7578C1160.92 72.7578 1161.3 72.8333 1161.64 72.9844C1161.77 73.0417 1161.86 73.1094 1161.9 73.1875C1161.95 73.2656 1161.97 73.4297 1161.97 73.6797C1161.97 74.112 1161.89 74.3281 1161.73 74.3281C1161.68 74.3281 1161.61 74.3021 1161.52 74.25ZM1168.8 72.7578C1169.23 72.7578 1169.63 72.8151 1169.98 72.9297C1170.33 73.0443 1170.62 73.2292 1170.86 73.4844C1171.1 73.7344 1171.28 74.0599 1171.41 74.4609C1171.54 74.8568 1171.6 75.3359 1171.6 75.8984V80.1328C1171.6 80.263 1171.56 80.3854 1171.48 80.5C1171.4 80.6146 1171.3 80.7161 1171.18 80.8047C1171.07 80.888 1170.94 80.9531 1170.8 81C1170.67 81.0521 1170.56 81.0781 1170.46 81.0781C1170.28 81.0781 1170.19 80.9661 1170.19 80.7422V76.1875C1170.19 74.651 1169.58 73.8828 1168.36 73.8828C1167.65 73.8828 1167.01 74.0781 1166.43 74.4688C1166.2 74.6198 1166.05 74.6953 1165.98 74.6953C1165.91 74.6953 1165.87 74.6536 1165.87 74.5703C1165.87 74.4245 1165.95 74.2526 1166.11 74.0547C1166.82 73.1901 1167.71 72.7578 1168.8 72.7578ZM1169.59 80.5625C1169.38 80.7604 1169.1 80.9219 1168.78 81.0469C1168.46 81.1771 1168.15 81.2422 1167.85 81.2422C1167.16 81.2422 1166.63 81.0599 1166.26 80.6953C1165.89 80.3255 1165.71 79.8724 1165.71 79.3359C1165.71 78.9505 1165.84 78.6562 1166.11 78.4531C1166.35 78.2656 1166.56 78.1719 1166.73 78.1719C1166.79 78.1719 1166.84 78.1927 1166.88 78.2344C1166.92 78.276 1166.95 78.3385 1166.95 78.4219C1166.95 79.0156 1167.05 79.4479 1167.25 79.7188C1167.45 79.9844 1167.82 80.1172 1168.34 80.1172C1168.49 80.1172 1168.68 80.0911 1168.91 80.0391C1169.13 79.9818 1169.32 79.9062 1169.48 79.8125C1169.57 79.7552 1169.64 79.7266 1169.69 79.7266C1169.76 79.7266 1169.8 79.8229 1169.8 80.0156C1169.8 80.2552 1169.73 80.4375 1169.59 80.5625ZM1169.53 76.3438C1169.63 76.3958 1169.7 76.4661 1169.73 76.5547C1169.77 76.638 1169.79 76.7969 1169.79 77.0312C1169.79 77.2396 1169.77 77.3906 1169.73 77.4844C1169.7 77.5729 1169.64 77.6172 1169.55 77.6172C1169.5 77.6172 1169.42 77.5938 1169.31 77.5469C1168.82 77.3333 1168.38 77.2266 1167.98 77.2266C1167.34 77.2266 1166.73 77.4583 1166.16 77.9219C1165.97 78.0677 1165.85 78.1406 1165.79 78.1406C1165.71 78.1406 1165.66 78.0938 1165.66 78C1165.66 77.8542 1165.72 77.6953 1165.82 77.5234C1166.1 77.0599 1166.46 76.7083 1166.91 76.4688C1167.36 76.224 1167.86 76.1016 1168.41 76.1016C1168.84 76.1016 1169.21 76.1823 1169.53 76.3438ZM1175.92 81.2422C1175.48 81.2422 1175.11 81.1849 1174.79 81.0703C1174.48 80.9609 1174.22 80.7786 1174.02 80.5234C1173.83 80.263 1173.68 79.9271 1173.59 79.5156C1173.49 79.1042 1173.45 78.5964 1173.45 77.9922V73.75C1173.45 73.6094 1173.48 73.4792 1173.55 73.3594C1173.63 73.2344 1173.73 73.1276 1173.84 73.0391C1173.95 72.9505 1174.07 72.8828 1174.2 72.8359C1174.34 72.7839 1174.46 72.7578 1174.58 72.7578C1174.76 72.7578 1174.85 72.8698 1174.85 73.0938V77.5L1174.88 78.1875C1174.88 78.3385 1174.89 78.4609 1174.9 78.5547C1174.91 78.6432 1174.92 78.724 1174.94 78.7969C1174.95 78.8698 1174.97 78.9401 1174.98 79.0078C1175.01 79.0755 1175.03 79.1615 1175.06 79.2656C1175.15 79.5781 1175.32 79.7995 1175.57 79.9297C1175.82 80.0547 1176.14 80.1172 1176.52 80.1172C1176.91 80.1172 1177.28 80.0156 1177.63 79.8125C1177.73 79.7552 1177.8 79.7266 1177.84 79.7266C1177.91 79.7266 1177.95 79.8229 1177.95 80.0156C1177.95 80.2292 1177.88 80.4141 1177.73 80.5703C1177.58 80.7214 1177.39 80.8464 1177.18 80.9453C1176.97 81.0443 1176.74 81.1172 1176.51 81.1641C1176.28 81.2161 1176.08 81.2422 1175.92 81.2422ZM1179.75 73.0938V82.5859C1179.75 82.9766 1179.7 83.3359 1179.6 83.6641C1179.5 83.9974 1179.38 84.2656 1179.23 84.4688C1179.08 84.6771 1178.92 84.8542 1178.74 85C1178.57 85.1458 1178.4 85.2474 1178.26 85.3047C1178.12 85.3672 1177.99 85.3984 1177.89 85.3984C1177.81 85.3984 1177.77 85.362 1177.77 85.2891C1177.77 85.2422 1177.81 85.1615 1177.89 85.0469C1178.07 84.8021 1178.19 84.4922 1178.25 84.1172C1178.32 83.7474 1178.35 83.2474 1178.35 82.6172L1178.34 73.7656C1178.34 73.5625 1178.39 73.4036 1178.48 73.2891C1178.62 73.1328 1178.78 73.0052 1178.96 72.9062C1179.15 72.8073 1179.32 72.7578 1179.48 72.7578C1179.66 72.7578 1179.75 72.8698 1179.75 73.0938ZM1175.16 84.2031C1175.34 84.3438 1175.52 84.4427 1175.68 84.5C1175.84 84.5625 1176.04 84.5938 1176.27 84.5938C1176.48 84.5938 1176.72 84.5651 1176.98 84.5078C1177.26 84.4505 1177.4 84.4219 1177.41 84.4219C1177.55 84.4219 1177.62 84.487 1177.62 84.6172C1177.62 84.8568 1177.41 85.099 1177.01 85.3438C1176.6 85.5938 1176.16 85.7188 1175.7 85.7188C1175.24 85.7188 1174.8 85.6224 1174.39 85.4297C1173.98 85.237 1173.78 85.0469 1173.78 84.8594C1173.78 84.6719 1173.89 84.4948 1174.1 84.3281C1174.35 84.125 1174.55 84.0234 1174.7 84.0234C1174.86 84.0234 1175.01 84.0833 1175.16 84.2031ZM1189.65 75.5938L1188.72 79.6406C1188.61 80.1146 1188.4 80.4714 1188.09 80.7109C1187.78 80.9557 1187.55 81.0781 1187.39 81.0781C1187.24 81.0781 1187.16 81 1187.16 80.8438C1187.16 80.7344 1187.76 78.0443 1188.96 72.7734C1189.01 72.5651 1189.1 72.4609 1189.23 72.4609C1189.38 72.4609 1189.51 72.7083 1189.62 73.2031C1189.74 73.6979 1189.8 74.1328 1189.8 74.5078C1189.8 74.7526 1189.75 75.1146 1189.65 75.5938ZM1196.48 70.3906L1194.03 79.6406C1193.93 80.1146 1193.71 80.4714 1193.39 80.7109C1193.06 80.9557 1192.8 81.0781 1192.62 81.0781C1192.48 81.0781 1192.41 81.0052 1192.41 80.8594C1192.41 80.7135 1192.46 80.4844 1192.55 80.1719L1194.89 71.0859C1194.98 70.7526 1195.17 70.4688 1195.46 70.2344C1195.76 70 1196.03 69.8828 1196.29 69.8828C1196.45 69.8828 1196.52 69.9609 1196.52 70.1172C1196.52 70.1901 1196.51 70.2812 1196.48 70.3906ZM1186.28 79.1641L1184.41 71.0938C1184.38 70.9375 1184.37 70.8411 1184.37 70.8047C1184.37 70.5599 1184.51 70.3464 1184.79 70.1641C1185.07 69.9766 1185.31 69.8828 1185.52 69.8828C1185.6 69.8828 1185.67 69.9089 1185.71 69.9609C1185.75 70.0078 1185.79 70.099 1185.82 70.2344L1187.25 76.3906C1187.31 76.6458 1187.34 76.9141 1187.34 77.1953C1187.34 77.7682 1187.25 78.3021 1187.08 78.7969C1186.91 79.2865 1186.75 79.5312 1186.59 79.5312C1186.43 79.5312 1186.33 79.4089 1186.28 79.1641ZM1189.71 70.4219C1189.83 70.2708 1189.99 70.1432 1190.19 70.0391C1190.39 69.9349 1190.56 69.8828 1190.69 69.8828C1190.77 69.8828 1190.84 69.9115 1190.88 69.9688C1190.93 70.0208 1190.97 70.1146 1191.01 70.25L1192.58 76.7109C1192.64 76.9922 1192.67 77.2422 1192.67 77.4609C1192.67 77.6536 1192.62 77.9635 1192.52 78.3906C1192.42 78.8125 1192.32 79.112 1192.23 79.2891C1192.13 79.4609 1192.03 79.5469 1191.91 79.5469C1191.76 79.5469 1191.65 79.4245 1191.59 79.1797L1189.6 71.1797C1189.57 71.0599 1189.55 70.9479 1189.55 70.8438C1189.55 70.6979 1189.61 70.5573 1189.71 70.4219ZM1199.26 76.0234C1199.26 76.1693 1199.3 76.263 1199.39 76.3047C1199.48 76.3411 1199.62 76.3594 1199.8 76.3594C1200.25 76.3594 1200.64 76.3203 1200.96 76.2422C1201.28 76.1641 1201.53 76.0547 1201.7 75.9141C1201.88 75.7734 1202 75.625 1202.07 75.4688C1202.15 75.3125 1202.19 75.1406 1202.19 74.9531C1202.19 74.6302 1202.08 74.3724 1201.85 74.1797C1201.63 73.9818 1201.27 73.8828 1200.77 73.8828C1200 73.8828 1199.27 74.1276 1198.59 74.6172C1198.38 74.7682 1198.26 74.8438 1198.2 74.8438C1198.11 74.8438 1198.07 74.7943 1198.07 74.6953C1198.07 74.5651 1198.15 74.4062 1198.3 74.2188C1198.58 73.8594 1198.9 73.5651 1199.26 73.3359C1199.62 73.1068 1199.95 72.9531 1200.24 72.875C1200.54 72.7969 1200.83 72.7578 1201.12 72.7578C1201.5 72.7578 1201.84 72.7969 1202.14 72.875C1202.44 72.9531 1202.71 73.0755 1202.95 73.2422C1203.18 73.4036 1203.36 73.6276 1203.49 73.9141C1203.62 74.1953 1203.69 74.526 1203.69 74.9062C1203.69 75.7188 1203.3 76.3464 1202.52 76.7891C1201.75 77.2266 1200.7 77.4453 1199.36 77.4453C1198.98 77.4453 1198.56 77.4245 1198.09 77.3828C1197.85 77.3672 1197.73 77.2526 1197.73 77.0391C1197.73 76.4609 1197.82 76.0286 1197.98 75.7422C1198.15 75.4505 1198.37 75.2266 1198.63 75.0703C1198.89 74.9193 1199.09 74.8438 1199.23 74.8438C1199.35 74.8438 1199.41 74.9219 1199.41 75.0781C1199.41 75.1406 1199.39 75.2943 1199.34 75.5391C1199.28 75.7786 1199.26 75.9401 1199.26 76.0234ZM1197.8 78.2031C1197.8 77.9323 1197.92 77.7969 1198.17 77.7969H1198.84C1198.98 77.7969 1199.07 77.8229 1199.12 77.875C1199.18 77.9271 1199.23 78.0417 1199.26 78.2188C1199.46 79.4844 1200.15 80.1172 1201.34 80.1172C1201.63 80.1172 1201.91 80.0807 1202.17 80.0078C1202.43 79.9349 1202.63 79.8542 1202.77 79.7656C1202.92 79.6771 1203.05 79.5964 1203.17 79.5234C1203.3 79.4505 1203.39 79.4141 1203.45 79.4141C1203.57 79.4141 1203.62 79.4792 1203.62 79.6094C1203.62 79.7188 1203.57 79.8594 1203.45 80.0312C1203.33 80.2031 1203.15 80.3828 1202.93 80.5703C1202.71 80.7526 1202.41 80.9089 1202.02 81.0391C1201.63 81.1745 1201.21 81.2422 1200.76 81.2422C1199.82 81.2422 1199.09 80.9609 1198.57 80.3984C1198.05 79.8307 1197.8 79.099 1197.8 78.2031ZM1206.54 76.0234C1206.54 76.1693 1206.58 76.263 1206.67 76.3047C1206.77 76.3411 1206.9 76.3594 1207.08 76.3594C1207.53 76.3594 1207.92 76.3203 1208.24 76.2422C1208.57 76.1641 1208.81 76.0547 1208.98 75.9141C1209.16 75.7734 1209.28 75.625 1209.35 75.4688C1209.43 75.3125 1209.47 75.1406 1209.47 74.9531C1209.47 74.6302 1209.36 74.3724 1209.13 74.1797C1208.91 73.9818 1208.55 73.8828 1208.05 73.8828C1207.28 73.8828 1206.55 74.1276 1205.87 74.6172C1205.66 74.7682 1205.54 74.8438 1205.48 74.8438C1205.4 74.8438 1205.35 74.7943 1205.35 74.6953C1205.35 74.5651 1205.43 74.4062 1205.58 74.2188C1205.86 73.8594 1206.18 73.5651 1206.54 73.3359C1206.9 73.1068 1207.23 72.9531 1207.52 72.875C1207.82 72.7969 1208.11 72.7578 1208.41 72.7578C1208.78 72.7578 1209.12 72.7969 1209.42 72.875C1209.72 72.9531 1209.99 73.0755 1210.23 73.2422C1210.46 73.4036 1210.64 73.6276 1210.77 73.9141C1210.9 74.1953 1210.97 74.526 1210.97 74.9062C1210.97 75.7188 1210.58 76.3464 1209.8 76.7891C1209.03 77.2266 1207.98 77.4453 1206.64 77.4453C1206.27 77.4453 1205.84 77.4245 1205.37 77.3828C1205.13 77.3672 1205.02 77.2526 1205.02 77.0391C1205.02 76.4609 1205.1 76.0286 1205.27 75.7422C1205.43 75.4505 1205.65 75.2266 1205.91 75.0703C1206.17 74.9193 1206.37 74.8438 1206.51 74.8438C1206.63 74.8438 1206.7 74.9219 1206.7 75.0781C1206.7 75.1406 1206.67 75.2943 1206.62 75.5391C1206.57 75.7786 1206.54 75.9401 1206.54 76.0234ZM1205.08 78.2031C1205.08 77.9323 1205.2 77.7969 1205.45 77.7969H1206.12C1206.26 77.7969 1206.35 77.8229 1206.41 77.875C1206.46 77.9271 1206.51 78.0417 1206.54 78.2188C1206.74 79.4844 1207.43 80.1172 1208.62 80.1172C1208.91 80.1172 1209.19 80.0807 1209.45 80.0078C1209.71 79.9349 1209.91 79.8542 1210.05 79.7656C1210.2 79.6771 1210.33 79.5964 1210.45 79.5234C1210.58 79.4505 1210.67 79.4141 1210.73 79.4141C1210.85 79.4141 1210.91 79.4792 1210.91 79.6094C1210.91 79.7188 1210.85 79.8594 1210.73 80.0312C1210.61 80.2031 1210.43 80.3828 1210.21 80.5703C1209.99 80.7526 1209.69 80.9089 1209.3 81.0391C1208.91 81.1745 1208.49 81.2422 1208.04 81.2422C1207.1 81.2422 1206.37 80.9609 1205.85 80.3984C1205.34 79.8307 1205.08 79.099 1205.08 78.2031ZM1212.55 80.7422V69.9844C1212.55 69.7031 1212.68 69.4688 1212.94 69.2812C1213.2 69.0938 1213.45 69 1213.69 69C1213.87 69 1213.96 69.112 1213.96 69.3359V80.0938C1213.96 80.3802 1213.83 80.6172 1213.58 80.8047C1213.32 80.987 1213.07 81.0781 1212.83 81.0781C1212.65 81.0781 1212.55 80.9661 1212.55 80.7422ZM1218.29 80.5078C1218.07 80.888 1217.82 81.0781 1217.55 81.0781C1217.43 81.0781 1217.3 80.9818 1217.17 80.7891L1214.48 76.8594C1214.4 76.724 1214.35 76.6146 1214.35 76.5312C1214.35 76.401 1214.42 76.2578 1214.56 76.1016L1216.87 73.5312C1217.09 73.2865 1217.28 73.138 1217.46 73.0859C1217.64 73.0339 1217.93 73.0052 1218.35 73C1218.51 73 1218.59 73.0651 1218.59 73.1953C1218.59 73.2891 1218.52 73.4115 1218.37 73.5625L1216.05 75.9609C1215.92 76.0964 1215.86 76.2109 1215.86 76.3047C1215.86 76.3828 1215.9 76.4792 1215.99 76.5938L1218.27 79.7188C1218.37 79.8594 1218.41 79.987 1218.41 80.1016C1218.41 80.2318 1218.37 80.3672 1218.29 80.5078ZM1228.24 71.4766H1223.36C1223.14 71.4766 1223.02 71.3984 1223.02 71.2422C1223.02 71.1172 1223.09 70.9479 1223.21 70.7344C1223.34 70.5208 1223.48 70.3438 1223.64 70.2031C1223.76 70.0938 1223.95 70.0391 1224.22 70.0391H1229.06C1229.29 70.0391 1229.41 70.1354 1229.41 70.3281C1229.41 70.4375 1229.32 70.6146 1229.13 70.8594L1228.84 71.2266C1228.71 71.3932 1228.51 71.4766 1228.24 71.4766ZM1227.94 72.4219L1226.77 73.9531C1226.69 74.0469 1226.66 74.1276 1226.66 74.1953C1226.66 74.3047 1226.78 74.3906 1227.03 74.4531C1227.81 74.6354 1228.45 75.0156 1228.93 75.5938C1229.41 76.1719 1229.66 76.9115 1229.66 77.8125C1229.66 78.2188 1229.57 78.6172 1229.41 79.0078C1229.24 79.3984 1229.04 79.7266 1228.8 79.9922C1228.57 80.2578 1228.31 80.4714 1228.05 80.6328C1227.78 80.7943 1227.54 80.875 1227.34 80.875C1227.22 80.875 1227.16 80.8255 1227.16 80.7266C1227.16 80.6953 1227.17 80.6615 1227.19 80.625C1227.21 80.5885 1227.23 80.5521 1227.25 80.5156C1227.27 80.4792 1227.31 80.4245 1227.36 80.3516C1227.41 80.2734 1227.46 80.2005 1227.5 80.1328C1227.85 79.5599 1228.03 78.8568 1228.03 78.0234C1228.03 76.1797 1226.97 75.2578 1224.86 75.2578C1224.69 75.2578 1224.6 75.1927 1224.6 75.0625C1224.6 74.9896 1224.65 74.8828 1224.76 74.7422L1226.59 72.2656C1226.73 72.0729 1227.08 71.9766 1227.62 71.9766C1227.77 71.9766 1227.88 72.0052 1227.95 72.0625C1228.01 72.1198 1228.03 72.1797 1228.02 72.2422C1228.01 72.3047 1227.98 72.3646 1227.94 72.4219ZM1224.94 81.2422C1224.31 81.2422 1223.75 81.0286 1223.27 80.6016C1223.11 80.4609 1223.03 80.2995 1223.03 80.1172C1223.03 79.9974 1223.09 79.875 1223.21 79.75C1223.54 79.4219 1223.83 79.2578 1224.09 79.2578C1224.24 79.2578 1224.43 79.349 1224.66 79.5312C1225.05 79.8542 1225.42 80.0156 1225.79 80.0156C1225.98 80.0156 1226.17 79.974 1226.37 79.8906C1226.57 79.8073 1226.69 79.7656 1226.73 79.7656C1226.86 79.7656 1226.92 79.8411 1226.92 79.9922C1226.92 80.0547 1226.9 80.1328 1226.87 80.2266C1226.83 80.3203 1226.76 80.4271 1226.66 80.5469C1226.57 80.6667 1226.45 80.7786 1226.3 80.8828C1226.16 80.9818 1225.97 81.0651 1225.73 81.1328C1225.49 81.2057 1225.23 81.2422 1224.94 81.2422ZM1237.72 70.7109C1237.72 70.9141 1237.58 71.1198 1237.31 71.3281C1237.05 71.5365 1236.82 71.6406 1236.62 71.6406C1236.48 71.6406 1236.31 71.5938 1236.11 71.5C1235.91 71.4062 1235.68 71.3125 1235.41 71.2188C1235.15 71.125 1234.88 71.0781 1234.58 71.0781C1234.34 71.0781 1234.14 71.099 1233.95 71.1406C1233.77 71.1823 1233.58 71.263 1233.38 71.3828C1233.18 71.5026 1233.04 71.6016 1232.94 71.6797C1232.84 71.7578 1232.64 71.9323 1232.33 72.2031C1232.02 72.4688 1231.83 72.6016 1231.75 72.6016C1231.63 72.6016 1231.57 72.5365 1231.57 72.4062C1231.57 72.3229 1231.61 72.1979 1231.7 72.0312C1231.8 71.8646 1231.98 71.6094 1232.25 71.2656C1232.53 70.9167 1232.93 70.5859 1233.47 70.2734C1234.01 69.9557 1234.7 69.7969 1235.52 69.7969C1236.11 69.7969 1236.68 69.9297 1237.22 70.1953C1237.55 70.3516 1237.72 70.5234 1237.72 70.7109ZM1233.84 81.2422C1233.44 81.2422 1233.08 81.1615 1232.77 81C1232.47 80.8438 1232.22 80.6484 1232.05 80.4141C1231.87 80.1745 1231.72 79.8906 1231.61 79.5625C1231.5 79.2344 1231.43 78.9245 1231.39 78.6328C1231.35 78.3411 1231.34 78.0391 1231.34 77.7266C1231.34 77.4036 1231.47 77.1146 1231.74 76.8594C1232.02 76.599 1232.29 76.4688 1232.55 76.4688C1232.73 76.4688 1232.82 76.5859 1232.82 76.8203C1232.82 77.1068 1232.83 77.362 1232.84 77.5859C1232.85 77.8099 1232.88 78.0495 1232.91 78.3047C1232.96 78.5599 1233.02 78.7812 1233.09 78.9688C1233.17 79.151 1233.27 79.3229 1233.38 79.4844C1233.5 79.6406 1233.65 79.7604 1233.83 79.8438C1234.01 79.9219 1234.22 79.9609 1234.45 79.9609C1234.7 79.9609 1234.96 79.9141 1235.22 79.8203C1235.48 79.7214 1235.65 79.6719 1235.7 79.6719C1235.82 79.6719 1235.88 79.7318 1235.88 79.8516C1235.88 79.9766 1235.83 80.1172 1235.74 80.2734C1235.65 80.4245 1235.53 80.5755 1235.37 80.7266C1235.21 80.8724 1235 80.9948 1234.73 81.0938C1234.46 81.1927 1234.17 81.2422 1233.84 81.2422ZM1233.48 74.5078C1233.7 74.4141 1233.96 74.3385 1234.27 74.2812C1234.59 74.2188 1234.83 74.1875 1235.02 74.1875C1236.11 74.1875 1236.92 74.4844 1237.46 75.0781C1238 75.6719 1238.27 76.5312 1238.27 77.6562C1238.27 78.2865 1238.11 78.9062 1237.8 79.5156C1237.59 79.9479 1237.3 80.3047 1236.95 80.5859C1236.61 80.862 1236.32 81 1236.07 81C1235.95 81 1235.89 80.9479 1235.89 80.8438C1235.89 80.8021 1235.9 80.7578 1235.93 80.7109C1235.96 80.6641 1236.01 80.599 1236.06 80.5156C1236.12 80.4323 1236.21 80.276 1236.33 80.0469C1236.45 79.8125 1236.54 79.5312 1236.6 79.2031C1236.67 78.875 1236.7 78.4714 1236.7 77.9922C1236.7 77.6589 1236.66 77.349 1236.59 77.0625C1236.51 76.776 1236.38 76.5052 1236.2 76.25C1236.03 75.9948 1235.77 75.7943 1235.44 75.6484C1235.1 75.5026 1234.71 75.4297 1234.24 75.4297C1233.38 75.4297 1232.55 75.7188 1231.77 76.2969C1231.66 76.375 1231.56 76.4141 1231.47 76.4141C1231.3 76.4141 1231.22 76.2656 1231.22 75.9688C1231.22 75.5417 1231.26 75.0833 1231.34 74.5938C1231.41 74.099 1231.5 73.7604 1231.59 73.5781C1231.73 73.3125 1231.95 73.0573 1232.25 72.8125C1232.55 72.5625 1232.8 72.4375 1232.98 72.4375C1233.13 72.4375 1233.2 72.5182 1233.2 72.6797C1233.2 72.737 1233.16 72.9818 1233.07 73.4141C1232.99 73.8464 1232.95 74.1458 1232.95 74.3125C1232.95 74.4948 1233.02 74.5859 1233.17 74.5859C1233.26 74.5859 1233.36 74.5599 1233.48 74.5078ZM1244.9 78.6641C1244.83 78.8776 1244.73 79.0156 1244.62 79.0781C1244.52 79.1406 1244.34 79.1719 1244.1 79.1719C1243.67 79.1719 1243.45 79.0729 1243.45 78.875C1243.45 78.8229 1243.51 78.6693 1243.62 78.4141C1243.74 78.1589 1243.96 77.8281 1244.26 77.4219C1244.57 77.0156 1244.87 76.6615 1245.17 76.3594C1245.47 76.0573 1245.78 75.7448 1246.1 75.4219C1246.42 75.099 1246.7 74.8047 1246.94 74.5391C1247.18 74.2734 1247.37 73.987 1247.52 73.6797C1247.68 73.3672 1247.76 73.0599 1247.76 72.7578C1247.76 72.1536 1247.62 71.724 1247.34 71.4688C1247.05 71.2083 1246.58 71.0781 1245.9 71.0781C1245.6 71.0781 1245.27 71.1458 1244.89 71.2812C1244.52 71.4167 1244.15 71.6536 1243.78 71.9922C1243.55 72.2005 1243.4 72.3047 1243.33 72.3047C1243.23 72.3047 1243.18 72.2526 1243.18 72.1484C1243.18 72.0182 1243.24 71.8333 1243.36 71.5938C1243.61 71.1615 1243.92 70.8047 1244.29 70.5234C1244.66 70.2422 1245.02 70.0521 1245.36 69.9531C1245.7 69.849 1246.05 69.7969 1246.41 69.7969C1247.29 69.7969 1247.99 70.0443 1248.52 70.5391C1249.04 71.0286 1249.3 71.7161 1249.3 72.6016C1249.3 72.9297 1249.23 73.2604 1249.09 73.5938C1248.95 73.9271 1248.77 74.2396 1248.54 74.5312C1248.31 74.8229 1248.05 75.112 1247.77 75.3984C1247.5 75.6849 1247.21 75.9688 1246.91 76.25C1246.61 76.526 1246.33 76.7943 1246.06 77.0547C1245.8 77.3099 1245.57 77.5781 1245.35 77.8594C1245.14 78.1406 1244.99 78.4089 1244.9 78.6641ZM1243.7 79.5625H1249.29C1249.51 79.5625 1249.62 79.6406 1249.62 79.7969C1249.62 79.875 1249.57 80.0365 1249.45 80.2812C1249.33 80.526 1249.2 80.7135 1249.06 80.8438C1248.95 80.9479 1248.76 81 1248.48 81H1243.46C1243.24 81 1243.13 80.8568 1243.13 80.5703C1243.13 80.2422 1243.17 79.9922 1243.24 79.8203C1243.32 79.6484 1243.47 79.5625 1243.7 79.5625ZM1255.19 69.7969C1255.74 69.7969 1256.23 69.8698 1256.63 70.0156C1257.04 70.1562 1257.39 70.3542 1257.68 70.6094C1257.97 70.8594 1258.21 71.1562 1258.39 71.5C1258.57 71.8438 1258.72 72.2161 1258.82 72.6172C1258.92 73.013 1258.99 73.4297 1259.03 73.8672C1259.07 74.3047 1259.09 74.7422 1259.09 75.1797C1259.09 75.6276 1259.08 76.1016 1259.04 76.6016C1259.01 77.0964 1258.94 77.5807 1258.83 78.0547C1258.72 78.5286 1258.57 78.974 1258.37 79.3906C1258.16 79.8073 1257.9 80.1641 1257.56 80.4609C1257.24 80.737 1256.98 80.875 1256.76 80.875C1256.65 80.875 1256.6 80.8151 1256.6 80.6953C1256.6 80.6432 1256.64 80.5729 1256.71 80.4844C1256.78 80.3958 1256.86 80.2682 1256.94 80.1016C1257.33 79.2526 1257.52 77.862 1257.52 75.9297C1257.52 75.2266 1257.48 74.5807 1257.4 73.9922C1257.32 73.4036 1257.17 72.8958 1256.95 72.4688C1256.74 72.0417 1256.44 71.7083 1256.05 71.4688C1255.67 71.224 1255.17 71.0938 1254.56 71.0781C1254.16 71.0781 1253.76 71.1641 1253.36 71.3359C1252.97 71.5078 1252.59 71.7682 1252.21 72.1172C1252.09 72.2318 1251.99 72.3177 1251.91 72.375C1251.82 72.4271 1251.75 72.4531 1251.69 72.4531C1251.58 72.4531 1251.52 72.401 1251.52 72.2969C1251.52 72.1302 1251.64 71.8958 1251.86 71.5938C1252.75 70.3958 1253.86 69.7969 1255.19 69.7969ZM1253.16 72.7422C1253.16 72.7578 1253.14 72.8255 1253.12 72.9453C1253.09 73.0599 1253.06 73.2214 1253.02 73.4297C1252.99 73.6328 1252.95 73.8698 1252.91 74.1406C1252.88 74.4062 1252.85 74.7318 1252.82 75.1172C1252.79 75.5026 1252.78 75.8958 1252.78 76.2969C1252.78 76.7865 1252.82 77.237 1252.88 77.6484C1252.96 78.0599 1253.07 78.4479 1253.23 78.8125C1253.39 79.1719 1253.61 79.4557 1253.91 79.6641C1254.2 79.8672 1254.56 79.9688 1254.97 79.9688C1255.24 79.9688 1255.47 79.9349 1255.66 79.8672C1255.84 79.7995 1255.98 79.7344 1256.08 79.6719C1256.18 79.6042 1256.25 79.5703 1256.3 79.5703C1256.42 79.5703 1256.48 79.6354 1256.48 79.7656C1256.48 80.0625 1256.29 80.3828 1255.91 80.7266C1255.53 81.0703 1255.04 81.2422 1254.46 81.2422C1252.3 81.2422 1251.22 79.5573 1251.22 76.1875C1251.22 75.5885 1251.26 75.0234 1251.33 74.4922C1251.4 73.9609 1251.49 73.5885 1251.61 73.375C1251.76 73.1042 1251.96 72.8828 1252.23 72.7109C1252.51 72.5391 1252.73 72.4531 1252.91 72.4531C1253.08 72.4531 1253.16 72.5495 1253.16 72.7422ZM1262.45 78.6641C1262.37 78.8776 1262.28 79.0156 1262.17 79.0781C1262.06 79.1406 1261.89 79.1719 1261.65 79.1719C1261.22 79.1719 1261 79.0729 1261 78.875C1261 78.8229 1261.06 78.6693 1261.17 78.4141C1261.29 78.1589 1261.5 77.8281 1261.8 77.4219C1262.11 77.0156 1262.42 76.6615 1262.72 76.3594C1263.02 76.0573 1263.33 75.7448 1263.65 75.4219C1263.97 75.099 1264.24 74.8047 1264.48 74.5391C1264.72 74.2734 1264.92 73.987 1265.07 73.6797C1265.23 73.3672 1265.3 73.0599 1265.3 72.7578C1265.3 72.1536 1265.16 71.724 1264.88 71.4688C1264.6 71.2083 1264.12 71.0781 1263.45 71.0781C1263.15 71.0781 1262.81 71.1458 1262.44 71.2812C1262.06 71.4167 1261.69 71.6536 1261.33 71.9922C1261.09 72.2005 1260.94 72.3047 1260.88 72.3047C1260.78 72.3047 1260.73 72.2526 1260.73 72.1484C1260.73 72.0182 1260.79 71.8333 1260.91 71.5938C1261.16 71.1615 1261.47 70.8047 1261.84 70.5234C1262.21 70.2422 1262.56 70.0521 1262.91 69.9531C1263.25 69.849 1263.6 69.7969 1263.95 69.7969C1264.84 69.7969 1265.54 70.0443 1266.06 70.5391C1266.58 71.0286 1266.84 71.7161 1266.84 72.6016C1266.84 72.9297 1266.77 73.2604 1266.63 73.5938C1266.5 73.9271 1266.32 74.2396 1266.09 74.5312C1265.86 74.8229 1265.6 75.112 1265.32 75.3984C1265.04 75.6849 1264.76 75.9688 1264.45 76.25C1264.16 76.526 1263.88 76.7943 1263.61 77.0547C1263.35 77.3099 1263.11 77.5781 1262.9 77.8594C1262.68 78.1406 1262.53 78.4089 1262.45 78.6641ZM1261.24 79.5625H1266.84C1267.06 79.5625 1267.17 79.6406 1267.17 79.7969C1267.17 79.875 1267.11 80.0365 1266.99 80.2812C1266.88 80.526 1266.75 80.7135 1266.61 80.8438C1266.49 80.9479 1266.3 81 1266.03 81H1261.01C1260.79 81 1260.68 80.8568 1260.68 80.5703C1260.68 80.2422 1260.72 79.9922 1260.79 79.8203C1260.87 79.6484 1261.02 79.5625 1261.24 79.5625ZM1270.43 72.4219V73.8906C1270.43 74.0625 1270.47 74.1745 1270.54 74.2266C1270.62 74.2786 1270.72 74.3047 1270.84 74.3047C1270.92 74.3047 1271.05 74.3021 1271.23 74.2969C1271.4 74.2917 1271.52 74.2891 1271.57 74.2891C1272.11 74.2891 1272.59 74.3542 1273.02 74.4844C1273.45 74.6094 1273.83 74.8073 1274.16 75.0781C1274.5 75.3438 1274.75 75.7031 1274.93 76.1562C1275.11 76.6094 1275.2 77.1406 1275.2 77.75C1275.2 78.1875 1275.12 78.6094 1274.96 79.0156C1274.8 79.4167 1274.61 79.75 1274.37 80.0156C1274.13 80.276 1273.89 80.4844 1273.62 80.6406C1273.37 80.7969 1273.14 80.875 1272.93 80.875C1272.88 80.875 1272.83 80.862 1272.8 80.8359C1272.77 80.8047 1272.75 80.7682 1272.75 80.7266C1272.75 80.6901 1272.76 80.6484 1272.79 80.6016C1272.82 80.5547 1272.86 80.487 1272.92 80.3984C1272.98 80.3099 1273.04 80.2214 1273.09 80.1328C1273.45 79.4349 1273.63 78.7318 1273.63 78.0234C1273.63 77.1693 1273.41 76.526 1272.96 76.0938C1272.51 75.6562 1271.8 75.4375 1270.84 75.4375C1270.66 75.4375 1270.42 75.4609 1270.12 75.5078C1269.82 75.5495 1269.63 75.5703 1269.55 75.5703C1269.29 75.5703 1269.16 75.4245 1269.16 75.1328V72.4219C1269.16 72.1146 1269.37 71.9609 1269.79 71.9609C1270.01 71.9609 1270.17 71.9922 1270.27 72.0547C1270.38 72.112 1270.43 72.2344 1270.43 72.4219ZM1270.69 81.2422C1270.07 81.2422 1269.52 81.0286 1269.02 80.6016C1268.85 80.4349 1268.77 80.2734 1268.77 80.1172C1268.77 80.013 1268.83 79.8906 1268.96 79.75C1269.29 79.4219 1269.58 79.2578 1269.84 79.2578C1270.02 79.2578 1270.21 79.349 1270.41 79.5312C1270.8 79.849 1271.18 80.0078 1271.54 80.0078C1271.73 80.0078 1271.91 79.9688 1272.08 79.8906C1272.26 79.8073 1272.36 79.7656 1272.4 79.7656C1272.53 79.7656 1272.59 79.8411 1272.59 79.9922C1272.59 80.0547 1272.58 80.1328 1272.55 80.2266C1272.52 80.3203 1272.45 80.4297 1272.36 80.5547C1272.27 80.6745 1272.16 80.7839 1272.02 80.8828C1271.89 80.9818 1271.71 81.0651 1271.48 81.1328C1271.24 81.2057 1270.98 81.2422 1270.69 81.2422ZM1273.51 71.4766H1269.49C1269.37 71.4766 1269.29 71.4609 1269.23 71.4297C1269.18 71.3984 1269.16 71.3411 1269.16 71.2578C1269.16 71.1536 1269.22 70.9818 1269.34 70.7422C1269.46 70.5026 1269.58 70.3229 1269.71 70.2031C1269.83 70.0938 1270.02 70.0391 1270.29 70.0391H1274.34C1274.56 70.0391 1274.67 70.1302 1274.67 70.3125C1274.67 70.4583 1274.61 70.6276 1274.48 70.8203C1274.35 71.0078 1274.2 71.1745 1274.03 71.3203C1273.9 71.4245 1273.73 71.4766 1273.51 71.4766Z" fill="white"/>
<defs>
<linearGradient id="paint0_linear_122_9" x1="873.5" y1="-1.91407e-06" x2="1682" y2="2169" gradientUnits="userSpaceOnUse">
<stop stop-color="#071F1F"/>
<stop offset="0.306454" stop-color="#164141" stop-opacity="0.846773"/>
<stop offset="1" stop-color="#46B5B5" stop-opacity="0.5"/>
</linearGradient>
</defs>
</svg>
