<svg width="1499" height="1199" viewBox="0 0 1499 1199" fill="none" xmlns="http://www.w3.org/2000/svg">
<rect width="1499" height="1199" fill="url(#paint0_linear_125_5)"/>
<rect x="38" y="228" width="326" height="110" rx="10" fill="#5D2F52"/>
<rect x="404" y="228" width="326" height="110" rx="10" fill="#5D2F52"/>
<rect x="1136" y="228" width="326" height="110" rx="10" fill="#5D2F52"/>
<rect x="770" y="228" width="326" height="110" rx="10" fill="#5D2F52"/>
<path d="M48.4688 74.5625C40.1979 74.5625 33.7292 72.4479 29.0625 68.2188C24.4167 63.9688 22.0938 57.7083 22.0938 49.4375C22.0938 41.3958 24.3438 35.3646 28.8438 31.3438C33.3438 27.3021 39.5833 25.2812 47.5625 25.2812C51.8542 25.2812 55.6667 25.625 59 26.3125C62.3542 26.9792 65.4375 27.9792 68.25 29.3125V43.5938H58.8438C58.0104 42.4062 56.9792 41.3854 55.75 40.5312C54.5208 39.6562 53.0312 39.2188 51.2812 39.2188C49.4062 39.2188 47.7812 39.6771 46.4062 40.5938C45.0521 41.4896 44 42.7083 43.25 44.25C42.5 45.7917 42.125 47.5208 42.125 49.4375C42.125 52.8125 42.8854 55.3958 44.4062 57.1875C45.9479 58.9583 48.3333 59.8438 51.5625 59.8438C52.3958 59.8438 53.1875 59.8021 53.9375 59.7188C54.6875 59.6146 55.4167 59.4896 56.125 59.3438V55.5625H50.125V47H69.5625V69.8125C66.5833 71.0625 63.3542 72.1667 59.875 73.125C56.4167 74.0833 52.6146 74.5625 48.4688 74.5625ZM73.25 74V60.4375L78.1875 59.6562V40.3438L73.25 39.5625V26H102.812V39.5625L98.1875 40.3438V62C100.208 62 101.948 61.5938 103.406 60.7812C104.865 59.9479 106.094 59.0208 107.094 58H112.312V74H73.25ZM144.781 74.5625C139.01 74.5625 134.031 73.6771 129.844 71.9062C125.656 70.1146 122.438 67.3646 120.188 63.6562C117.938 59.9479 116.812 55.2083 116.812 49.4375C116.812 43.875 117.979 39.3125 120.312 35.75C122.667 32.1875 125.948 29.5521 130.156 27.8438C134.365 26.1354 139.24 25.2812 144.781 25.2812C150.344 25.2812 155.229 26.1354 159.438 27.8438C163.646 29.5521 166.927 32.1875 169.281 35.75C171.635 39.3125 172.812 43.875 172.812 49.4375C172.812 55.1667 171.667 59.8958 169.375 63.625C167.083 67.3333 163.833 70.0833 159.625 71.875C155.438 73.6667 150.49 74.5625 144.781 74.5625ZM144.781 59.4688C147.865 59.4688 149.969 58.5521 151.094 56.7188C152.24 54.8854 152.812 52.4583 152.812 49.4375C152.812 46.3958 152.24 43.9896 151.094 42.2188C149.948 40.4479 147.844 39.5625 144.781 39.5625C141.719 39.5625 139.625 40.4479 138.5 42.2188C137.375 43.9896 136.812 46.3958 136.812 49.4375C136.812 52.4583 137.365 54.8854 138.469 56.7188C139.594 58.5521 141.698 59.4688 144.781 59.4688ZM176.344 74V60.4375L181.281 59.6562V39.1875L176.344 38.4062V26H217.656C220.594 26.7083 222.958 27.9062 224.75 29.5938C226.542 31.2604 227.438 33.8021 227.438 37.2188C227.438 39.4271 227.115 41.4583 226.469 43.3125C225.823 45.1667 224.833 46.6562 223.5 47.7812C222.167 48.8854 220.448 49.4375 218.344 49.4375C220.594 49.5417 222.646 49.9479 224.5 50.6562C226.354 51.3646 227.833 52.4479 228.938 53.9062C230.062 55.3646 230.625 57.2812 230.625 59.6562C230.625 64.9062 229.135 68.6146 226.156 70.7812C223.177 72.9271 218.979 74 213.562 74H176.344ZM201.281 46.0938H204.219C206.24 46.0938 207.812 45.8229 208.938 45.2812C210.062 44.7188 210.625 43.4167 210.625 41.375C210.625 39.4583 210.031 38.2708 208.844 37.8125C207.656 37.3542 206.115 37.125 204.219 37.125H201.281V46.0938ZM201.281 61.7188H204.219C206.24 61.7188 207.812 61.4479 208.938 60.9062C210.062 60.3438 210.625 59.0312 210.625 56.9688C210.625 55.0521 210.031 53.875 208.844 53.4375C207.656 52.9792 206.115 52.75 204.219 52.75H201.281V61.7188ZM234.969 74V58.25L238.812 57.4688L248.031 26H273.844L283.094 57.4688L286.938 58.25V74H269.156L267.469 65.9375H254.406L252.75 74H234.969ZM257.094 55.2188H264.781L260.938 37.125L257.094 55.2188ZM290.812 74V60.4375L295.75 59.6562V40.3438L290.812 39.5625V26H320.375V39.5625L315.75 40.3438V62C317.771 62 319.51 61.5938 320.969 60.7812C322.427 59.9479 323.656 59.0208 324.656 58H329.875V74H290.812ZM354.219 74V58.25L358.062 57.4688L367.281 26H393.094L402.344 57.4688L406.188 58.25V74H388.406L386.719 65.9375H373.656L372 74H354.219ZM376.344 55.2188H384.031L380.188 37.125L376.344 55.2188ZM410.125 74V60.4375L415.062 59.6562V40.3438L410.125 39.5625V26H440V39.5625L435.062 40.3438V59.6562L440 60.4375V74H410.125ZM480.312 74.5625C476.604 74.5625 473.271 74.2708 470.312 73.6875C467.354 73.1042 464.729 72.1771 462.438 70.9062V56.4062H471.844C472.448 57.5312 473.24 58.5417 474.219 59.4375C475.198 60.3333 476.406 60.7812 477.844 60.7812C478.906 60.7812 479.771 60.4479 480.438 59.7812C481.125 59.1146 481.625 58.2604 481.938 57.2188C482.25 56.1771 482.406 55.1042 482.406 54V40.3438L477.469 39.5625V26H507.344V39.5625L502.406 40.3438V54C502.406 61.0417 500.479 66.2292 496.625 69.5625C492.792 72.8958 487.354 74.5625 480.312 74.5625ZM537.781 74.5625C532.01 74.5625 527.031 73.6771 522.844 71.9062C518.656 70.1146 515.438 67.3646 513.188 63.6562C510.938 59.9479 509.812 55.2083 509.812 49.4375C509.812 43.875 510.979 39.3125 513.312 35.75C515.667 32.1875 518.948 29.5521 523.156 27.8438C527.365 26.1354 532.24 25.2812 537.781 25.2812C543.344 25.2812 548.229 26.1354 552.438 27.8438C556.646 29.5521 559.927 32.1875 562.281 35.75C564.635 39.3125 565.812 43.875 565.812 49.4375C565.812 55.1667 564.667 59.8958 562.375 63.625C560.083 67.3333 556.833 70.0833 552.625 71.875C548.438 73.6667 543.49 74.5625 537.781 74.5625ZM537.781 59.4688C540.865 59.4688 542.969 58.5521 544.094 56.7188C545.24 54.8854 545.812 52.4583 545.812 49.4375C545.812 46.3958 545.24 43.9896 544.094 42.2188C542.948 40.4479 540.844 39.5625 537.781 39.5625C534.719 39.5625 532.625 40.4479 531.5 42.2188C530.375 43.9896 529.812 46.3958 529.812 49.4375C529.812 52.4583 530.365 54.8854 531.469 56.7188C532.594 58.5521 534.698 59.4688 537.781 59.4688ZM569.344 74V60.4375L574.281 59.6562V39.1875L569.344 38.4062V26H610.656C613.594 26.7083 615.958 27.9062 617.75 29.5938C619.542 31.2604 620.438 33.8021 620.438 37.2188C620.438 39.4271 620.115 41.4583 619.469 43.3125C618.823 45.1667 617.833 46.6562 616.5 47.7812C615.167 48.8854 613.448 49.4375 611.344 49.4375C613.594 49.5417 615.646 49.9479 617.5 50.6562C619.354 51.3646 620.833 52.4479 621.938 53.9062C623.062 55.3646 623.625 57.2812 623.625 59.6562C623.625 64.9062 622.135 68.6146 619.156 70.7812C616.177 72.9271 611.979 74 606.562 74H569.344ZM594.281 46.0938H597.219C599.24 46.0938 600.812 45.8229 601.938 45.2812C603.062 44.7188 603.625 43.4167 603.625 41.375C603.625 39.4583 603.031 38.2708 601.844 37.8125C600.656 37.3542 599.115 37.125 597.219 37.125H594.281V46.0938ZM594.281 61.7188H597.219C599.24 61.7188 600.812 61.4479 601.938 60.9062C603.062 60.3438 603.625 59.0312 603.625 56.9688C603.625 55.0521 603.031 53.875 601.844 53.4375C600.656 52.9792 599.115 52.75 597.219 52.75H594.281V61.7188ZM654.625 74V60.4375L659.562 59.6562V38C657.917 38 656.562 38.4375 655.5 39.3125C654.438 40.1667 653.542 41.0625 652.812 42H647.562V26H691.562V42H686.312C685.604 41.0625 684.708 40.1667 683.625 39.3125C682.562 38.4375 681.208 38 679.562 38V59.6562L684.5 60.4375V74H654.625ZM695.25 74V60.4375L700.188 59.6562V40.3438L695.25 39.5625V26H723.406C726.844 26 730.062 26.1562 733.062 26.4688C736.062 26.7604 738.688 27.4062 740.938 28.4062C743.208 29.3854 744.979 30.8854 746.25 32.9062C747.521 34.9062 748.156 37.6146 748.156 41.0312C748.156 43.5521 747.75 45.6146 746.938 47.2188C746.146 48.8021 745.031 50.0833 743.594 51.0625C742.177 52.0417 740.531 52.9062 738.656 53.6562C740.26 56.2396 741.906 58.6146 743.594 60.7812C745.281 62.9271 746.802 64.7188 748.156 66.1562V74H728.281C725.073 68.3542 722.74 62.6354 721.281 56.8438H720.188V74H695.25ZM720.188 47.625C721.792 47.625 723.188 47.5104 724.375 47.2812C725.583 47.0312 726.521 46.5208 727.188 45.75C727.854 44.9583 728.188 43.7604 728.188 42.1562C728.188 40.5521 727.854 39.3646 727.188 38.5938C726.521 37.8021 725.583 37.2812 724.375 37.0312C723.188 36.7604 721.792 36.625 720.188 36.625V47.625ZM752 74V60.4375L756.938 59.6562V40.4062L752 39.625V26H794.719V42H789.688C788.104 40.8958 786.26 39.9583 784.156 39.1875C782.073 38.3958 779.667 38 776.938 38V46.5312L786.312 44.5V55.5625L776.938 53.5312V62C779.625 62 782.01 61.625 784.094 60.875C786.177 60.1042 787.979 59.1458 789.5 58H794.719V74H752ZM799.781 74V60.4375L804.656 59.6562V40.3438L799.781 39.5625V26H824.656L840.656 50.5938V40.4062L836.656 39.5625V26H857.531V39.5625L852.656 40.3438V74H832.625L816.656 50.5938V59.6562L820.656 60.4062V74H799.781ZM860.344 74V60.4375L865.344 59.6562V39.1875L860.344 38.4062V26H897.75C901.688 26.8333 905.125 28.1875 908.062 30.0625C911 31.9167 913.281 34.4271 914.906 37.5938C916.531 40.7396 917.344 44.6875 917.344 49.4375C917.344 54.125 916.562 58.0521 915 61.2188C913.438 64.3646 911.229 66.875 908.375 68.75C905.521 70.625 902.135 71.9688 898.219 72.7812C894.323 73.5938 890.031 74 885.344 74H860.344ZM885.344 59.6562H888.406C891.073 59.6562 893.156 59.2396 894.656 58.4062C896.156 57.5521 897 55.9583 897.188 53.625C897.229 53 897.26 52.3438 897.281 51.6562C897.302 50.9479 897.312 50.2083 897.312 49.4375C897.312 46.9792 897.094 45 896.656 43.5C896.219 42 895.365 40.9062 894.094 40.2188C892.823 39.5312 890.927 39.1875 888.406 39.1875H885.344V59.6562ZM940.5 74.5625C936.625 74.5625 933.042 74.3125 929.75 73.8125C926.479 73.2917 923.479 72.3229 920.75 70.9062V58.5625H930.156C931.031 59.7708 932.104 60.8021 933.375 61.6562C934.667 62.5104 936.219 62.9375 938.031 62.9375C939.49 62.9375 940.521 62.5521 941.125 61.7812C941.729 60.9896 942.031 59.8333 942.031 58.3125C939.219 58.0625 936.51 57.625 933.906 57C931.323 56.375 929.01 55.4583 926.969 54.25C924.927 53.0208 923.312 51.3958 922.125 49.375C920.938 47.3333 920.344 44.7812 920.344 41.7188C920.344 37.6146 921.25 34.3854 923.062 32.0312C924.896 29.6771 927.406 28 930.594 27C933.802 26 937.458 25.5 941.562 25.5C945.625 25.5 949.219 25.8125 952.344 26.4375C955.469 27.0625 958.354 27.9896 961 29.2188V41.4062H951.594C950.76 40.2188 949.729 39.1979 948.5 38.3438C947.271 37.4688 945.781 37.0312 944.031 37.0312C942.573 37.0312 941.521 37.4792 940.875 38.375C940.229 39.25 939.906 40.4583 939.906 42C943.094 42.1042 946.031 42.4375 948.719 43C951.427 43.5625 953.771 44.4792 955.75 45.75C957.75 47 959.292 48.6979 960.375 50.8438C961.479 52.9688 962.031 55.6667 962.031 58.9375C962.031 61.9167 961.479 64.4167 960.375 66.4375C959.271 68.4375 957.74 70.0312 955.781 71.2188C953.823 72.4062 951.542 73.2604 948.938 73.7812C946.333 74.3021 943.521 74.5625 940.5 74.5625Z" fill="#F5F5F5"/>
<path d="M1321.97 35.0059L1319.78 29.1875L1318.94 29.0586V26.75H1324.08V29.0586L1323.48 29.1875L1324.43 32.375L1325.38 29.1875L1324.77 29.0586V26.75H1329.03V29.0586L1328.2 29.1875L1326.01 35.0059H1321.97ZM1329.77 35V32.6621L1330.47 32.5273V29.1934L1329.77 29.0586V26.75H1334.7V29.0586L1334 29.1934V32.5273L1334.7 32.6621V35H1329.77ZM1335.38 35V32.9375L1338.41 28.8184C1338.01 28.8184 1337.66 28.8867 1337.36 29.0234C1337.06 29.1562 1336.81 29.3164 1336.59 29.5039H1335.69V26.75H1342.08V28.9766L1339.38 32.8438C1339.46 32.8555 1339.55 32.8613 1339.63 32.8613C1339.97 32.8613 1340.27 32.7988 1340.52 32.6738C1340.77 32.5488 1340.99 32.4082 1341.17 32.252H1342.08V35H1335.38ZM1346.55 35V32.6621L1347.25 32.5273V28.9941L1346.55 28.8594V26.75H1353.66C1354.17 26.8711 1354.59 27.0723 1354.91 27.3535C1355.23 27.6348 1355.39 28.0684 1355.39 28.6543C1355.39 28.8574 1355.37 29.0781 1355.32 29.3164C1355.29 29.5547 1355.21 29.7812 1355.1 29.9961C1354.98 30.207 1354.82 30.3848 1354.61 30.5293C1354.4 30.6699 1354.12 30.748 1353.78 30.7637C1354.17 30.7832 1354.53 30.8535 1354.86 30.9746C1355.19 31.0918 1355.45 31.2754 1355.65 31.5254C1355.85 31.7754 1355.95 32.1094 1355.95 32.5273C1355.95 33.1367 1355.83 33.623 1355.59 33.9863C1355.35 34.3457 1355.01 34.6055 1354.56 34.7656C1354.11 34.9219 1353.57 35 1352.94 35H1346.55ZM1350.78 30.1836H1351.29C1351.66 30.1836 1351.94 30.1328 1352.13 30.0312C1352.33 29.9258 1352.42 29.6875 1352.42 29.3164C1352.42 28.9648 1352.32 28.7441 1352.12 28.6543C1351.92 28.5645 1351.64 28.5195 1351.29 28.5195H1350.78V30.1836ZM1350.78 32.9961H1351.29C1351.66 32.9961 1351.94 32.9434 1352.13 32.8379C1352.33 32.7324 1352.42 32.4941 1352.42 32.123C1352.42 31.7715 1352.32 31.5527 1352.12 31.4668C1351.92 31.377 1351.64 31.332 1351.29 31.332H1350.78V32.9961ZM1358.95 35V32.6738L1359.65 32.498L1357.23 29.1875L1356.34 29.0586V26.75H1361.05V29.0586L1360.5 29.1875L1361.62 30.8809L1362.73 29.1875L1362.18 29.0586V26.75H1366.88V29.0586L1365.99 29.1875L1363.57 32.498L1364.28 32.6738V35H1358.95ZM1367.7 29.75V26.75H1371.45V29.75H1367.7ZM1367.7 35V32H1371.45V35H1367.7ZM1375.96 35V32.6621L1376.66 32.5273V28.9941L1375.96 28.8594V26.75H1383.07C1383.59 26.8711 1384 27.0723 1384.32 27.3535C1384.64 27.6348 1384.8 28.0684 1384.8 28.6543C1384.8 28.8574 1384.78 29.0781 1384.74 29.3164C1384.7 29.5547 1384.62 29.7812 1384.51 29.9961C1384.4 30.207 1384.23 30.3848 1384.02 30.5293C1383.81 30.6699 1383.54 30.748 1383.2 30.7637C1383.59 30.7832 1383.95 30.8535 1384.28 30.9746C1384.6 31.0918 1384.87 31.2754 1385.07 31.5254C1385.27 31.7754 1385.37 32.1094 1385.37 32.5273C1385.37 33.1367 1385.24 33.623 1385 33.9863C1384.76 34.3457 1384.42 34.6055 1383.97 34.7656C1383.52 34.9219 1382.98 35 1382.35 35H1375.96ZM1380.19 30.1836H1380.71C1381.07 30.1836 1381.35 30.1328 1381.54 30.0312C1381.74 29.9258 1381.84 29.6875 1381.84 29.3164C1381.84 28.9648 1381.74 28.7441 1381.53 28.6543C1381.33 28.5645 1381.05 28.5195 1380.71 28.5195H1380.19V30.1836ZM1380.19 32.9961H1380.71C1381.07 32.9961 1381.35 32.9434 1381.54 32.8379C1381.74 32.7324 1381.84 32.4941 1381.84 32.123C1381.84 31.7715 1381.74 31.5527 1381.53 31.4668C1381.33 31.377 1381.05 31.332 1380.71 31.332H1380.19V32.9961ZM1385.98 35V32.6621L1386.68 32.5273V29.1934L1385.98 29.0586V26.75H1390.91V29.0586L1390.21 29.1934V32.5273L1390.91 32.6621V35H1385.98ZM1394.78 35.1055C1394.1 35.1055 1393.51 35.0566 1393.01 34.959C1392.51 34.8613 1392.04 34.7051 1391.62 34.4902V31.9648H1393.28C1393.39 32.1562 1393.53 32.3301 1393.7 32.4863C1393.87 32.6426 1394.09 32.7207 1394.34 32.7207C1394.61 32.7207 1394.82 32.5977 1394.95 32.3516C1395.08 32.1055 1395.14 31.8379 1395.14 31.5488V29.1934L1394.44 29.0586V26.75H1399.38V29.0586L1398.67 29.1934V31.5488C1398.67 32.7871 1398.33 33.6895 1397.65 34.2559C1396.97 34.8223 1396.01 35.1055 1394.78 35.1055ZM1404.57 35.1055C1403.57 35.1055 1402.7 34.9531 1401.96 34.6484C1401.23 34.3438 1400.65 33.8711 1400.25 33.2305C1399.85 32.5898 1399.64 31.7676 1399.64 30.7637C1399.64 29.7793 1399.85 28.9766 1400.27 28.3555C1400.68 27.7305 1401.26 27.2695 1401.99 26.9727C1402.74 26.6758 1403.6 26.5273 1404.57 26.5273C1405.55 26.5273 1406.41 26.6758 1407.15 26.9727C1407.89 27.2695 1408.47 27.7305 1408.88 28.3555C1409.3 28.9766 1409.51 29.7793 1409.51 30.7637C1409.51 31.7676 1409.31 32.5898 1408.91 33.2305C1408.51 33.8711 1407.94 34.3438 1407.2 34.6484C1406.46 34.9531 1405.58 35.1055 1404.57 35.1055ZM1404.57 32.5508C1405.12 32.5508 1405.49 32.3867 1405.69 32.0586C1405.89 31.7305 1405.99 31.2988 1405.99 30.7637C1405.99 30.2285 1405.89 29.8047 1405.69 29.4922C1405.49 29.1797 1405.12 29.0234 1404.57 29.0234C1404.04 29.0234 1403.67 29.1758 1403.47 29.4805C1403.27 29.7852 1403.17 30.2031 1403.17 30.7344C1403.17 31.2773 1403.27 31.7168 1403.45 32.0527C1403.64 32.3848 1404.02 32.5508 1404.57 32.5508ZM1412.53 35V32.6738L1413.23 32.498L1410.81 29.1875L1409.92 29.0586V26.75H1414.63V29.0586L1414.08 29.1875L1415.2 30.8809L1416.31 29.1875L1415.76 29.0586V26.75H1420.46V29.0586L1419.57 29.1875L1417.15 32.498L1417.86 32.6738V35H1412.53ZM1424.86 35V32.6621L1425.57 32.5273V29.1934L1424.86 29.0586V26.75H1429.66C1430.24 26.75 1430.8 26.7754 1431.32 26.8262C1431.84 26.873 1432.31 26.9785 1432.71 27.1426C1433.12 27.3066 1433.44 27.5566 1433.68 27.8926C1433.91 28.2285 1434.03 28.6836 1434.03 29.2578C1434.03 29.8633 1433.89 30.3398 1433.61 30.6875C1433.33 31.0312 1432.96 31.2852 1432.49 31.4492C1432.02 31.6094 1431.49 31.7109 1430.9 31.7539C1430.31 31.7969 1429.71 31.8184 1429.09 31.8184V32.5273L1429.8 32.6621V35H1424.86ZM1429.09 30.3359C1429.55 30.3359 1429.9 30.2637 1430.14 30.1191C1430.38 29.9746 1430.51 29.6699 1430.51 29.2051C1430.51 28.7598 1430.38 28.4746 1430.13 28.3496C1429.88 28.2207 1429.54 28.1562 1429.09 28.1562V30.3359ZM1434.44 35V32.2812L1435.12 32.1465L1436.74 26.75H1441.29L1442.92 32.1465L1443.6 32.2812V35H1440.46L1440.17 33.6113H1437.87L1437.57 35H1434.44ZM1438.22 31.7598H1439.81L1439.01 28.5195L1438.22 31.7598ZM1444.33 35V32.6621L1445.03 32.5273V29.1934L1444.33 29.0586V26.75H1448.56L1451.38 31.1973V29.2051L1450.67 29.0586V26.75H1454.2V29.0586L1453.49 29.1934V32.5273L1454.2 32.6621V35H1449.96L1447.15 30.6699V32.5273L1447.86 32.6562V35H1444.33ZM1456.47 35V32.6621L1457.18 32.5273V28.9297C1456.99 28.9297 1456.79 28.9609 1456.6 29.0234C1456.41 29.0859 1456.25 29.1777 1456.12 29.2988C1455.99 29.4199 1455.92 29.5703 1455.92 29.75H1454.95V26.75H1462.94V29.75H1461.96C1461.96 29.5703 1461.89 29.4199 1461.76 29.2988C1461.63 29.1777 1461.47 29.0859 1461.28 29.0234C1461.09 28.9609 1460.9 28.9297 1460.71 28.9297V32.5273L1461.41 32.6621V35H1456.47ZM1468.89 35.1055C1467.44 35.1055 1466.32 34.748 1465.52 34.0332C1464.71 33.3145 1464.31 32.2246 1464.31 30.7637V29.1934L1463.61 29.0586V26.75H1468.19V29.0586L1467.48 29.1934V30.1719C1467.48 30.2539 1467.48 30.3359 1467.48 30.418C1467.49 30.5 1467.49 30.5781 1467.49 30.6523V30.7754C1467.49 31.3027 1467.59 31.7207 1467.79 32.0293C1467.99 32.3379 1468.36 32.4922 1468.89 32.4922C1469.43 32.4922 1469.79 32.3379 1470 32.0293C1470.21 31.7168 1470.31 31.2949 1470.31 30.7637V30.6289C1470.31 30.5586 1470.31 30.4844 1470.3 30.4062C1470.3 30.3242 1470.3 30.2422 1470.3 30.1602V29.1934L1469.6 29.0586V26.75H1473.67V29.0586L1472.96 29.1934C1472.95 29.252 1472.95 29.3105 1472.95 29.3691C1472.95 29.4238 1472.95 29.4785 1472.95 29.5332V30.7637C1472.95 32.1387 1472.61 33.207 1471.94 33.9688C1471.26 34.7266 1470.25 35.1055 1468.89 35.1055ZM1360.51 55.1055C1359.81 55.1055 1359.19 55.0586 1358.66 54.9648C1358.13 54.8711 1357.65 54.7129 1357.21 54.4902V52.457H1358.86C1358.99 52.6602 1359.15 52.8359 1359.35 52.9844C1359.55 53.1328 1359.79 53.207 1360.08 53.207C1360.35 53.207 1360.54 53.1191 1360.63 52.9434C1360.73 52.7676 1360.78 52.5312 1360.78 52.2344C1360.29 52.1914 1359.82 52.1191 1359.37 52.0176C1358.91 51.916 1358.5 51.7637 1358.14 51.5605C1357.78 51.3574 1357.49 51.084 1357.28 50.7402C1357.06 50.3965 1356.96 49.9609 1356.96 49.4336C1356.96 48.707 1357.12 48.1328 1357.44 47.7109C1357.76 47.2852 1358.21 46.9824 1358.77 46.8027C1359.34 46.6191 1359.98 46.5273 1360.7 46.5273C1361.38 46.5273 1361.99 46.5898 1362.53 46.7148C1363.06 46.8359 1363.56 47 1364.01 47.207V49.2578H1362.23C1362.12 49.0469 1361.98 48.8594 1361.8 48.6953C1361.63 48.5312 1361.41 48.4492 1361.14 48.4492C1360.85 48.4492 1360.66 48.5547 1360.56 48.7656C1360.46 48.9766 1360.4 49.2344 1360.4 49.5391C1360.96 49.5586 1361.47 49.6152 1361.94 49.709C1362.41 49.7988 1362.83 49.9492 1363.18 50.1602C1363.54 50.3672 1363.81 50.6523 1364.01 51.0156C1364.21 51.3789 1364.31 51.8418 1364.31 52.4043C1364.31 53.1113 1364.14 53.6602 1363.8 54.0508C1363.47 54.4414 1363.01 54.7148 1362.44 54.8711C1361.87 55.0273 1361.22 55.1055 1360.51 55.1055ZM1369.67 55.1055C1368.67 55.1055 1367.8 54.9531 1367.07 54.6484C1366.33 54.3438 1365.76 53.8711 1365.35 53.2305C1364.95 52.5898 1364.75 51.7676 1364.75 50.7637C1364.75 49.7793 1364.95 48.9766 1365.37 48.3555C1365.78 47.7305 1366.36 47.2695 1367.1 46.9727C1367.84 46.6758 1368.7 46.5273 1369.67 46.5273C1370.65 46.5273 1371.51 46.6758 1372.25 46.9727C1372.99 47.2695 1373.57 47.7305 1373.99 48.3555C1374.4 48.9766 1374.61 49.7793 1374.61 50.7637C1374.61 51.7676 1374.41 52.5898 1374.01 53.2305C1373.61 53.8711 1373.04 54.3438 1372.3 54.6484C1371.56 54.9531 1370.69 55.1055 1369.67 55.1055ZM1369.67 52.5508C1370.22 52.5508 1370.59 52.3867 1370.79 52.0586C1370.99 51.7305 1371.09 51.2988 1371.09 50.7637C1371.09 50.2285 1370.99 49.8047 1370.79 49.4922C1370.59 49.1797 1370.22 49.0234 1369.67 49.0234C1369.14 49.0234 1368.78 49.1758 1368.57 49.4805C1368.37 49.7852 1368.27 50.2031 1368.27 50.7344C1368.27 51.2773 1368.37 51.7168 1368.55 52.0527C1368.75 52.3848 1369.12 52.5508 1369.67 52.5508ZM1380.29 55.1055C1378.84 55.1055 1377.71 54.748 1376.91 54.0332C1376.11 53.3145 1375.71 52.2246 1375.71 50.7637V49.1934L1375.01 49.0586V46.75H1379.58V49.0586L1378.88 49.1934V50.1719C1378.88 50.2539 1378.88 50.3359 1378.88 50.418C1378.88 50.5 1378.88 50.5781 1378.88 50.6523V50.7754C1378.88 51.3027 1378.98 51.7207 1379.18 52.0293C1379.39 52.3379 1379.75 52.4922 1380.29 52.4922C1380.82 52.4922 1381.19 52.3379 1381.39 52.0293C1381.6 51.7168 1381.7 51.2949 1381.7 50.7637V50.6289C1381.7 50.5586 1381.7 50.4844 1381.7 50.4062C1381.7 50.3242 1381.7 50.2422 1381.7 50.1602V49.1934L1380.99 49.0586V46.75H1385.06V49.0586L1384.35 49.1934C1384.35 49.252 1384.35 49.3105 1384.35 49.3691C1384.35 49.4238 1384.35 49.4785 1384.35 49.5332V50.7637C1384.35 52.1387 1384.01 53.207 1383.33 53.9688C1382.66 54.7266 1381.64 55.1055 1380.29 55.1055ZM1385.78 55V52.6621L1386.48 52.5273V49.1934L1385.78 49.0586V46.75H1390.58C1391.09 46.75 1391.58 46.7676 1392.06 46.8027C1392.54 46.8379 1392.98 46.916 1393.38 47.0371C1393.78 47.1582 1394.11 47.3418 1394.37 47.5879C1394.64 47.834 1394.81 48.168 1394.88 48.5898C1394.92 48.8086 1394.94 49.0488 1394.94 49.3105C1394.94 49.752 1394.87 50.1094 1394.72 50.3828C1394.58 50.6562 1394.39 50.877 1394.14 51.0449C1393.89 51.2129 1393.6 51.3613 1393.26 51.4902C1393.46 51.877 1393.72 52.2559 1394.04 52.627C1394.37 52.9941 1394.67 53.334 1394.94 53.6465V55H1391.44C1391.2 54.5547 1390.96 54.0898 1390.74 53.6055C1390.52 53.1172 1390.34 52.5957 1390.21 52.041H1390.01V55H1385.78ZM1390.01 50.4531C1390.46 50.4531 1390.81 50.3887 1391.05 50.2598C1391.3 50.1309 1391.42 49.8418 1391.42 49.3926C1391.42 48.9434 1391.3 48.6523 1391.05 48.5195C1390.8 48.3867 1390.46 48.3203 1390.01 48.3203V50.4531ZM1400.2 55.1055C1399.23 55.1055 1398.39 54.9473 1397.68 54.6309C1396.96 54.3105 1396.42 53.8301 1396.03 53.1895C1395.64 52.5449 1395.45 51.7363 1395.45 50.7637C1395.45 49.791 1395.64 48.9922 1396.02 48.3672C1396.4 47.7422 1396.94 47.2793 1397.65 46.9785C1398.35 46.6777 1399.19 46.5273 1400.16 46.5273C1400.86 46.5273 1401.49 46.5898 1402.05 46.7148C1402.61 46.8359 1403.12 47 1403.58 47.207V49.7559H1401.92C1401.78 49.5488 1401.59 49.3711 1401.38 49.2227C1401.17 49.0742 1400.91 49 1400.59 49C1400.1 49 1399.71 49.1699 1399.42 49.5098C1399.13 49.8457 1398.98 50.2637 1398.98 50.7637C1398.98 51.3691 1399.14 51.8184 1399.45 52.1113C1399.75 52.4004 1400.21 52.5449 1400.8 52.5449C1401.3 52.5449 1401.77 52.4922 1402.22 52.3867C1402.67 52.2812 1403.12 52.1602 1403.58 52.0234V54.5723C1402.42 54.9277 1401.29 55.1055 1400.2 55.1055ZM1404.41 55V52.6621L1405.12 52.5273V49.2051L1404.41 49.0703V46.75H1411.66V49.75H1410.85C1410.59 49.5547 1410.27 49.3984 1409.89 49.2812C1409.51 49.1641 1409.1 49.1055 1408.64 49.1055V50.377L1410.27 50.0312V51.7012L1408.64 51.3496V52.6445C1409.1 52.6445 1409.52 52.5879 1409.9 52.4746C1410.28 52.3613 1410.6 52.2031 1410.85 52H1411.66V55H1404.41ZM1412.57 49.75V46.75H1416.32V49.75H1412.57ZM1412.57 55V52H1416.32V55H1412.57ZM1420.84 55V52.6621L1421.55 52.5273V49.1934L1420.84 49.0586V46.75H1425.07V50.043L1426.63 46.75H1430.43V48.2383C1430.02 48.5859 1429.64 48.9766 1429.3 49.4102C1428.96 49.8398 1428.65 50.2871 1428.37 50.752C1428.7 51.2832 1429.05 51.8145 1429.41 52.3457C1429.77 52.873 1430.17 53.3594 1430.59 53.8047V55H1426.63L1425.07 51.543V55H1420.84ZM1431.2 55V52.2812L1431.88 52.1465L1433.51 46.75H1438.05L1439.69 52.1465L1440.36 52.2812V55H1437.23L1436.93 53.6113H1434.63L1434.34 55H1431.2ZM1434.99 51.7598H1436.58L1435.78 48.5195L1434.99 51.7598ZM1445.45 55.1055C1444.01 55.1055 1442.87 54.7441 1442.04 54.0215C1441.21 53.2949 1440.8 52.209 1440.8 50.7637C1440.8 49.791 1440.99 48.9922 1441.37 48.3672C1441.75 47.7422 1442.29 47.2793 1443 46.9785C1443.71 46.6777 1444.54 46.5273 1445.51 46.5273C1446.21 46.5273 1446.84 46.5898 1447.4 46.7148C1447.96 46.8359 1448.47 47 1448.93 47.207V49.7559H1447.28C1447.13 49.5371 1446.96 49.3574 1446.77 49.2168C1446.58 49.0723 1446.3 49 1445.95 49C1445.41 49 1445.01 49.1582 1444.74 49.4746C1444.47 49.791 1444.33 50.2207 1444.33 50.7637C1444.33 51.4004 1444.45 51.877 1444.69 52.1934C1444.93 52.5059 1445.37 52.6621 1445.99 52.6621C1446.17 52.6621 1446.33 52.6504 1446.47 52.627C1446.62 52.6035 1446.77 52.5684 1446.92 52.5215V51.8535H1445.74V50.4121H1449.17V54.3027C1448.64 54.5254 1448.07 54.7148 1447.46 54.8711C1446.86 55.0273 1446.19 55.1055 1445.45 55.1055ZM1454.39 55.1055C1452.95 55.1055 1451.81 54.7441 1450.98 54.0215C1450.16 53.2949 1449.74 52.209 1449.74 50.7637C1449.74 49.791 1449.93 48.9922 1450.31 48.3672C1450.69 47.7422 1451.24 47.2793 1451.94 46.9785C1452.65 46.6777 1453.48 46.5273 1454.45 46.5273C1455.15 46.5273 1455.78 46.5898 1456.34 46.7148C1456.9 46.8359 1457.41 47 1457.88 47.207V49.7559H1456.22C1456.07 49.5371 1455.9 49.3574 1455.71 49.2168C1455.52 49.0723 1455.25 49 1454.89 49C1454.36 49 1453.95 49.1582 1453.68 49.4746C1453.41 49.791 1453.28 50.2207 1453.28 50.7637C1453.28 51.4004 1453.39 51.877 1453.63 52.1934C1453.88 52.5059 1454.31 52.6621 1454.93 52.6621C1455.11 52.6621 1455.27 52.6504 1455.41 52.627C1455.56 52.6035 1455.71 52.5684 1455.86 52.5215V51.8535H1454.68V50.4121H1458.11V54.3027C1457.58 54.5254 1457.01 54.7148 1456.4 54.8711C1455.8 55.0273 1455.13 55.1055 1454.39 55.1055ZM1458.87 55V52.6621L1459.57 52.5273V49.1934L1458.87 49.0586V46.75H1463.8V49.0586L1463.1 49.1934V52.75C1463.44 52.75 1463.73 52.6719 1463.98 52.5156C1464.23 52.3594 1464.44 52.1875 1464.6 52H1465.57V55H1458.87ZM1466.31 55V52.6621L1467.02 52.5273V49.2051L1466.31 49.0703V46.75H1473.55V49.75H1472.75C1472.49 49.5547 1472.17 49.3984 1471.79 49.2812C1471.41 49.1641 1471 49.1055 1470.54 49.1055V50.377L1472.17 50.0312V51.7012L1470.54 51.3496V52.6445C1471 52.6445 1471.42 52.5879 1471.8 52.4746C1472.18 52.3613 1472.5 52.2031 1472.75 52H1473.55V55H1466.31ZM1215.39 75L1215.64 73.5H1215.02V71.25H1216.01L1216.26 69.75H1215.34V67.5H1216.64L1216.89 66H1219.14L1218.89 67.5H1220.39L1220.64 66H1222.89L1222.64 67.5H1223.21V69.75H1222.26L1222.01 71.25H1222.91V73.5H1221.64L1221.39 75H1219.14L1219.39 73.5H1217.89L1217.64 75H1215.39ZM1218.26 71.25H1219.76L1220.01 69.75H1218.51L1218.26 71.25ZM1223.93 75V72.6621L1224.64 72.5273V69.1934L1223.93 69.0586V66.75H1228.16L1229.93 69.9023L1231.69 66.75H1235.92V69.0586L1235.21 69.1934V72.5273L1235.92 72.6621V75H1231.69V70.9629L1229.93 73.9395L1228.16 70.9629V75H1223.93ZM1236.62 75V72.2812L1237.3 72.1465L1238.93 66.75H1243.47L1245.11 72.1465L1245.78 72.2812V75H1242.65L1242.36 73.6113H1240.05L1239.76 75H1236.62ZM1240.41 71.7598H1242L1241.2 68.5195L1240.41 71.7598ZM1246.52 75V72.6621L1247.22 72.5273V69.1934L1246.52 69.0586V66.75H1250.75V70.043L1252.3 66.75H1256.1V68.2383C1255.69 68.5859 1255.32 68.9766 1254.98 69.4102C1254.64 69.8398 1254.32 70.2871 1254.04 70.752C1254.38 71.2832 1254.72 71.8145 1255.08 72.3457C1255.45 72.873 1255.84 73.3594 1256.26 73.8047V75H1252.3L1250.75 71.543V75H1246.52ZM1256.97 75V72.6621L1257.67 72.5273V69.2051L1256.97 69.0703V66.75H1264.21V69.75H1263.41C1263.15 69.5547 1262.83 69.3984 1262.45 69.2812C1262.07 69.1641 1261.65 69.1055 1261.2 69.1055V70.377L1262.82 70.0312V71.7012L1261.2 71.3496V72.6445C1261.66 72.6445 1262.07 72.5879 1262.45 72.4746C1262.84 72.3613 1263.15 72.2031 1263.41 72H1264.21V75H1256.97ZM1269.78 75.1055C1268.78 75.1055 1267.91 74.9531 1267.18 74.6484C1266.44 74.3438 1265.87 73.8711 1265.46 73.2305C1265.06 72.5898 1264.86 71.7676 1264.86 70.7637C1264.86 69.7793 1265.06 68.9766 1265.48 68.3555C1265.89 67.7305 1266.47 67.2695 1267.21 66.9727C1267.95 66.6758 1268.81 66.5273 1269.78 66.5273C1270.76 66.5273 1271.62 66.6758 1272.36 66.9727C1273.1 67.2695 1273.68 67.7305 1274.1 68.3555C1274.51 68.9766 1274.72 69.7793 1274.72 70.7637C1274.72 71.7676 1274.52 72.5898 1274.12 73.2305C1273.72 73.8711 1273.15 74.3438 1272.41 74.6484C1271.67 74.9531 1270.79 75.1055 1269.78 75.1055ZM1269.78 72.5508C1270.33 72.5508 1270.7 72.3867 1270.9 72.0586C1271.1 71.7305 1271.2 71.2988 1271.2 70.7637C1271.2 70.2285 1271.1 69.8047 1270.9 69.4922C1270.7 69.1797 1270.33 69.0234 1269.78 69.0234C1269.25 69.0234 1268.88 69.1758 1268.68 69.4805C1268.48 69.7852 1268.38 70.2031 1268.38 70.7344C1268.38 71.2773 1268.48 71.7168 1268.66 72.0527C1268.86 72.3848 1269.23 72.5508 1269.78 72.5508ZM1278.16 75.0059L1275.97 69.1875L1275.13 69.0586V66.75H1280.28V69.0586L1279.67 69.1875L1280.62 72.375L1281.58 69.1875L1280.97 69.0586V66.75H1285.23V69.0586L1284.4 69.1875L1282.21 75.0059H1278.16ZM1285.96 75V72.6621L1286.66 72.5273V69.2051L1285.96 69.0703V66.75H1293.2V69.75H1292.4C1292.14 69.5547 1291.82 69.3984 1291.44 69.2812C1291.06 69.1641 1290.64 69.1055 1290.19 69.1055V70.377L1291.81 70.0312V71.7012L1290.19 71.3496V72.6445C1290.65 72.6445 1291.07 72.5879 1291.45 72.4746C1291.83 72.3613 1292.15 72.2031 1292.4 72H1293.2V75H1285.96ZM1294.04 75V72.6621L1294.74 72.5273V69.1934L1294.04 69.0586V66.75H1298.83C1299.34 66.75 1299.84 66.7676 1300.32 66.8027C1300.8 66.8379 1301.24 66.916 1301.63 67.0371C1302.03 67.1582 1302.36 67.3418 1302.62 67.5879C1302.89 67.834 1303.06 68.168 1303.13 68.5898C1303.17 68.8086 1303.19 69.0488 1303.19 69.3105C1303.19 69.752 1303.12 70.1094 1302.98 70.3828C1302.84 70.6562 1302.64 70.877 1302.39 71.0449C1302.14 71.2129 1301.85 71.3613 1301.52 71.4902C1301.71 71.877 1301.97 72.2559 1302.3 72.627C1302.62 72.9941 1302.92 73.334 1303.19 73.6465V75H1299.69C1299.45 74.5547 1299.22 74.0898 1298.99 73.6055C1298.77 73.1172 1298.59 72.5957 1298.46 72.041H1298.27V75H1294.04ZM1298.27 70.4531C1298.71 70.4531 1299.06 70.3887 1299.31 70.2598C1299.55 70.1309 1299.68 69.8418 1299.68 69.3926C1299.68 68.9434 1299.55 68.6523 1299.3 68.5195C1299.06 68.3867 1298.71 68.3203 1298.27 68.3203V70.4531ZM1303.95 75V72.6621L1304.65 72.5273V69.1934L1303.95 69.0586V66.75H1308.17L1309.95 69.9023L1311.71 66.75H1315.93V69.0586L1315.23 69.1934V72.5273L1315.93 72.6621V75H1311.71V70.9629L1309.95 73.9395L1308.17 70.9629V75H1303.95ZM1321.39 75.1055C1320.39 75.1055 1319.52 74.9531 1318.79 74.6484C1318.05 74.3438 1317.47 73.8711 1317.07 73.2305C1316.67 72.5898 1316.46 71.7676 1316.46 70.7637C1316.46 69.7793 1316.67 68.9766 1317.09 68.3555C1317.5 67.7305 1318.08 67.2695 1318.81 66.9727C1319.56 66.6758 1320.42 66.5273 1321.39 66.5273C1322.37 66.5273 1323.23 66.6758 1323.97 66.9727C1324.71 67.2695 1325.29 67.7305 1325.71 68.3555C1326.12 68.9766 1326.33 69.7793 1326.33 70.7637C1326.33 71.7676 1326.13 72.5898 1325.73 73.2305C1325.33 73.8711 1324.76 74.3438 1324.02 74.6484C1323.28 74.9531 1322.4 75.1055 1321.39 75.1055ZM1321.39 72.5508C1321.94 72.5508 1322.31 72.3867 1322.51 72.0586C1322.71 71.7305 1322.81 71.2988 1322.81 70.7637C1322.81 70.2285 1322.71 69.8047 1322.51 69.4922C1322.31 69.1797 1321.94 69.0234 1321.39 69.0234C1320.86 69.0234 1320.49 69.1758 1320.29 69.4805C1320.09 69.7852 1319.99 70.2031 1319.99 70.7344C1319.99 71.2773 1320.09 71.7168 1320.27 72.0527C1320.46 72.3848 1320.84 72.5508 1321.39 72.5508ZM1326.82 75V72.6621L1327.53 72.5273V69.1934L1326.82 69.0586V66.75H1331.05L1333.87 71.1973V69.2051L1333.17 69.0586V66.75H1336.69V69.0586L1335.99 69.1934V72.5273L1336.69 72.6621V75H1332.46L1329.64 70.6699V72.5273L1330.35 72.6562V75H1326.82ZM1337.48 75V72.6621L1338.18 72.5273V68.9941L1337.48 68.8594V66.75H1343.89C1344.58 66.8945 1345.18 67.125 1345.69 67.4414C1346.21 67.7539 1346.62 68.1797 1346.9 68.7188C1347.2 69.2539 1347.34 69.9355 1347.34 70.7637C1347.34 71.5801 1347.21 72.2617 1346.93 72.8086C1346.65 73.3516 1346.26 73.7852 1345.75 74.1094C1345.25 74.4297 1344.65 74.6582 1343.96 74.7949C1343.28 74.9316 1342.52 75 1341.71 75H1337.48ZM1341.71 72.5273H1342.25C1342.68 72.5273 1343 72.4707 1343.23 72.3574C1343.46 72.2441 1343.61 72.0586 1343.69 71.8008C1343.78 71.543 1343.82 71.1973 1343.82 70.7637C1343.82 70.3379 1343.78 69.9961 1343.69 69.7383C1343.61 69.4805 1343.46 69.293 1343.23 69.1758C1343.01 69.0547 1342.68 68.9941 1342.25 68.9941H1341.71V72.5273ZM1347.7 75V72.2812L1348.38 72.1465L1350 66.75H1354.54L1356.18 72.1465L1356.85 72.2812V75H1353.72L1353.43 73.6113H1351.12L1350.83 75H1347.7ZM1351.48 71.7598H1353.07L1352.27 68.5195L1351.48 71.7598ZM1359.37 75V72.6738L1360.08 72.498L1357.66 69.1875L1356.77 69.0586V66.75H1361.47V69.0586L1360.92 69.1875L1362.04 70.8809L1363.15 69.1875L1362.6 69.0586V66.75H1367.3V69.0586L1366.42 69.1875L1364 72.498L1364.71 72.6738V75H1359.37ZM1374.71 75.0059L1372.46 69.1875L1371.62 69.0586V66.75H1376.97V69.0586L1376.37 69.1875L1377.32 72.2578L1378.28 69.1875L1377.67 69.0586V66.75H1383.02V69.0586L1382.41 69.1875L1383.36 72.2578L1384.32 69.1875L1383.71 69.0586V66.7207H1387.76V69.0586L1386.93 69.1875L1384.68 75.0059H1380.76L1379.69 71.8359L1378.64 75.0059H1374.71ZM1388.5 75V72.6621L1389.2 72.5273V69.2051L1388.5 69.0703V66.75H1395.74V69.75H1394.94C1394.68 69.5547 1394.36 69.3984 1393.98 69.2812C1393.6 69.1641 1393.18 69.1055 1392.73 69.1055V70.377L1394.35 70.0312V71.7012L1392.73 71.3496V72.6445C1393.19 72.6445 1393.61 72.5879 1393.98 72.4746C1394.37 72.3613 1394.69 72.2031 1394.94 72H1395.74V75H1388.5ZM1396.57 75V72.6621L1397.28 72.5273V69.2051L1396.57 69.0703V66.75H1403.82V69.75H1403.01C1402.75 69.5547 1402.43 69.3984 1402.05 69.2812C1401.67 69.1641 1401.26 69.1055 1400.8 69.1055V70.377L1402.43 70.0312V71.7012L1400.8 71.3496V72.6445C1401.26 72.6445 1401.68 72.5879 1402.06 72.4746C1402.44 72.3613 1402.76 72.2031 1403.01 72H1403.82V75H1396.57ZM1404.65 75V72.6621L1405.35 72.5273V69.1934L1404.65 69.0586V66.75H1408.88V70.043L1410.44 66.75H1414.23V68.2383C1413.82 68.5859 1413.45 68.9766 1413.11 69.4102C1412.77 69.8398 1412.46 70.2871 1412.17 70.752C1412.51 71.2832 1412.86 71.8145 1413.21 72.3457C1413.58 72.873 1413.97 73.3594 1414.39 73.8047V75H1410.44L1408.88 71.543V75H1404.65ZM1422.81 75.1699C1422 75.1699 1421.26 75.1074 1420.6 74.9824C1419.95 74.8535 1419.34 74.6738 1418.78 74.4434V72.0645H1420.54C1420.73 72.291 1420.95 72.4844 1421.21 72.6445C1421.46 72.8047 1421.78 72.8848 1422.14 72.8848C1422.44 72.8848 1422.7 72.8164 1422.93 72.6797C1423.16 72.543 1423.28 72.332 1423.28 72.0469C1423.28 71.8398 1423.21 71.6758 1423.07 71.5547C1422.93 71.4336 1422.76 71.373 1422.55 71.373H1421.03V69.6387H1422.55C1422.76 69.6387 1422.93 69.5781 1423.07 69.457C1423.21 69.332 1423.28 69.168 1423.28 68.9648C1423.28 68.6797 1423.16 68.4688 1422.93 68.332C1422.7 68.1953 1422.44 68.127 1422.14 68.127C1421.78 68.127 1421.46 68.207 1421.21 68.3672C1420.95 68.5234 1420.73 68.7168 1420.54 68.9473H1418.78V66.6035C1419.34 66.373 1419.95 66.1934 1420.6 66.0645C1421.26 65.9316 1422 65.8652 1422.81 65.8652C1423.75 65.8652 1424.56 66.0195 1425.26 66.3281C1425.96 66.6328 1426.47 67.0859 1426.77 67.6875C1426.95 68.0391 1427.03 68.3926 1427.03 68.748C1427.03 69.2012 1426.93 69.5781 1426.73 69.8789C1426.53 70.1758 1426.27 70.3848 1425.95 70.5059C1426.26 70.6387 1426.52 70.8516 1426.72 71.1445C1426.93 71.4336 1427.03 71.8066 1427.03 72.2637C1427.03 72.7598 1426.92 73.1836 1426.69 73.5352C1426.46 73.8828 1426.17 74.1699 1425.81 74.3965C1425.45 74.6191 1425.07 74.793 1424.67 74.918C1424.14 75.0859 1423.52 75.1699 1422.81 75.1699ZM1428.34 75.0059C1428.62 73.7676 1428.97 72.5664 1429.37 71.4023C1429.78 70.2344 1430.26 69.1836 1430.82 68.25C1430.35 68.25 1429.94 68.3242 1429.59 68.4727C1429.24 68.6211 1428.94 68.7969 1428.67 69H1427.69V66H1434.44V68.25C1434 69.2891 1433.59 70.3672 1433.21 71.4844C1432.83 72.6016 1432.5 73.7754 1432.2 75.0059H1428.34ZM1438.84 75V71.9824C1439.11 71.8887 1439.41 71.7871 1439.74 71.6777C1440.08 71.5645 1440.41 71.4395 1440.75 71.3027C1441.09 71.166 1441.41 71.0098 1441.69 70.834C1441.98 70.6582 1442.21 70.457 1442.38 70.2305C1442.56 70.0039 1442.65 69.7461 1442.65 69.457C1442.65 69.1484 1442.56 68.9082 1442.38 68.7363C1442.21 68.5645 1441.97 68.4785 1441.66 68.4785C1441.41 68.4785 1441.2 68.5664 1441.02 68.7422C1440.84 68.918 1440.71 69.1035 1440.61 69.2988H1438.84V66.6035C1439.28 66.373 1439.77 66.1934 1440.3 66.0645C1440.84 65.9316 1441.45 65.8652 1442.14 65.8652C1442.71 65.8652 1443.25 65.9238 1443.77 66.041C1444.28 66.1543 1444.74 66.334 1445.13 66.5801C1445.53 66.8262 1445.83 67.1484 1446.06 67.5469C1446.28 67.9453 1446.4 68.4297 1446.4 69C1446.4 69.4844 1446.3 69.918 1446.11 70.3008C1445.92 70.6836 1445.67 71.0195 1445.34 71.3086C1445.02 71.5938 1444.66 71.834 1444.26 72.0293C1443.86 72.2246 1443.44 72.377 1443.02 72.4863H1446.34V75H1438.84ZM1451.95 75.1699C1450.41 75.1699 1449.21 74.7637 1448.35 73.9512C1447.49 73.1348 1447.06 71.9492 1447.06 70.3945C1447.06 69.3945 1447.26 68.5605 1447.66 67.8926C1448.06 67.2207 1448.63 66.7148 1449.36 66.375C1450.1 66.0352 1450.96 65.8652 1451.95 65.8652C1452.95 65.8652 1453.82 66.0332 1454.55 66.3691C1455.28 66.7051 1455.85 67.209 1456.25 67.8809C1456.65 68.5527 1456.85 69.3906 1456.85 70.3945C1456.85 71.9492 1456.42 73.1348 1455.55 73.9512C1454.69 74.7637 1453.49 75.1699 1451.95 75.1699ZM1451.95 72.2754C1452.28 72.2754 1452.53 72.1875 1452.69 72.0117C1452.85 71.832 1452.96 71.5996 1453.02 71.3145C1453.07 71.0254 1453.1 70.7188 1453.1 70.3945C1453.1 70.0703 1453.07 69.7676 1453.02 69.4863C1452.96 69.2051 1452.85 68.9785 1452.69 68.8066C1452.53 68.6309 1452.28 68.543 1451.95 68.543C1451.63 68.543 1451.38 68.6309 1451.22 68.8066C1451.05 68.9785 1450.95 69.2051 1450.89 69.4863C1450.84 69.7676 1450.81 70.0703 1450.81 70.3945C1450.81 70.7188 1450.83 71.0254 1450.88 71.3145C1450.94 71.5996 1451.05 71.832 1451.21 72.0117C1451.38 72.1875 1451.62 72.2754 1451.95 72.2754ZM1457.58 75V71.9824C1457.85 71.8887 1458.15 71.7871 1458.48 71.6777C1458.81 71.5645 1459.15 71.4395 1459.49 71.3027C1459.83 71.166 1460.14 71.0098 1460.43 70.834C1460.71 70.6582 1460.95 70.457 1461.12 70.2305C1461.3 70.0039 1461.38 69.7461 1461.38 69.457C1461.38 69.1484 1461.3 68.9082 1461.12 68.7363C1460.95 68.5645 1460.71 68.4785 1460.4 68.4785C1460.15 68.4785 1459.94 68.5664 1459.76 68.7422C1459.58 68.918 1459.44 69.1035 1459.35 69.2988H1457.58V66.6035C1458.02 66.373 1458.51 66.1934 1459.04 66.0645C1459.58 65.9316 1460.19 65.8652 1460.88 65.8652C1461.45 65.8652 1461.99 65.9238 1462.5 66.041C1463.02 66.1543 1463.47 66.334 1463.87 66.5801C1464.26 66.8262 1464.57 67.1484 1464.79 67.5469C1465.02 67.9453 1465.13 68.4297 1465.13 69C1465.13 69.4844 1465.04 69.918 1464.85 70.3008C1464.66 70.6836 1464.4 71.0195 1464.08 71.3086C1463.76 71.5938 1463.4 71.834 1463 72.0293C1462.59 72.2246 1462.18 72.377 1461.75 72.4863H1465.08V75H1457.58ZM1469.51 75.1699C1468.81 75.1699 1468.16 75.1016 1467.57 74.9648C1466.97 74.8281 1466.43 74.6523 1465.94 74.4375V72.2285H1467.69C1467.87 72.4551 1468.08 72.6484 1468.32 72.8086C1468.56 72.9688 1468.87 73.0488 1469.22 73.0488C1469.62 73.0488 1469.92 72.9805 1470.1 72.8438C1470.29 72.707 1470.39 72.4375 1470.39 72.0352C1470.39 71.6602 1470.28 71.3984 1470.04 71.25C1469.82 71.0977 1469.52 71.0215 1469.14 71.0215C1468.71 71.0215 1468.28 71.0488 1467.87 71.1035C1467.45 71.1543 1467.05 71.2148 1466.68 71.2852L1465.94 70.6758V66H1473.1V68.7715H1471.33C1471.14 68.5996 1470.91 68.4609 1470.65 68.3555C1470.38 68.2461 1470.08 68.1914 1469.74 68.1914H1468.81L1468.73 69.5684C1468.91 69.4902 1469.11 69.4277 1469.34 69.3809C1469.56 69.3301 1469.79 69.3047 1470.03 69.3047C1470.52 69.3047 1470.98 69.3535 1471.42 69.4512C1471.87 69.5488 1472.26 69.7051 1472.61 69.9199C1472.95 70.1309 1473.23 70.4062 1473.43 70.7461C1473.63 71.0859 1473.73 71.4961 1473.73 71.9766C1473.73 72.5508 1473.62 73.041 1473.4 73.4473C1473.17 73.8496 1472.87 74.1777 1472.48 74.4316C1472.09 74.6855 1471.64 74.873 1471.13 74.9941C1470.62 75.1113 1470.08 75.1699 1469.51 75.1699Z" fill="#F5F5F5"/>
<defs>
<linearGradient id="paint0_linear_125_5" x1="749.5" y1="0" x2="749.5" y2="1199" gradientUnits="userSpaceOnUse">
<stop stop-color="#550844"/>
<stop offset="0.2" stop-color="#290721"/>
</linearGradient>
</defs>
</svg>
